<svg width="2017" height="2017" viewBox="0 0 2017 2017" fill="none" xmlns="http://www.w3.org/2000/svg">
<path fill-rule="evenodd" clip-rule="evenodd" d="M1387 344.077C1398.8 344.277 1414.3 345.077 1421.5 345.977C1428.6 346.877 1440.1 348.477 1447 349.677C1453.9 350.777 1465.1 353.077 1472 354.677C1478.9 356.277 1489.9 359.177 1496.5 361.177C1503.1 363.177 1512.8 366.377 1518 368.377C1523.2 370.277 1532.2 373.977 1538 376.377C1543.8 378.877 1553 383.177 1558.5 385.977C1564 388.677 1573.7 393.877 1580 397.477C1586.3 400.977 1596.7 407.277 1603 411.477C1609.3 415.577 1620.3 423.277 1627.5 428.677C1634.6 434.077 1644.5 441.877 1649.5 446.177C1654.4 450.377 1665.2 460.377 1673.4 468.477C1681.5 476.577 1693.5 488.977 1699.9 496.177C1706.3 503.277 1715.4 513.877 1720.1 519.677C1724.8 525.477 1734.5 537.777 1741.5 547.177C1748.5 556.477 1760 572.477 1767 582.677C1774 592.877 1784.3 608.377 1789.7 617.177C1795.2 625.977 1804.3 641.477 1810 651.677C1815.7 661.877 1824.5 678.677 1829.6 689.177C1834.6 699.577 1842.1 716.077 1846 725.677C1850 735.277 1855.7 749.677 1858.6 757.677C1861.5 765.677 1866.4 780.277 1869.4 790.177C1872.5 800.077 1877.3 817.177 1880 828.177C1882.7 839.177 1886.1 854.677 1887.4 862.677C1888.8 870.677 1890.9 885.477 1892.1 895.677C1893.9 910.777 1894.3 919.677 1894.4 944.177C1894.4 966.677 1894 977.977 1892.7 989.177C1891.7 997.477 1889.8 1010.98 1888.4 1019.18C1887.1 1027.48 1884.6 1040.28 1882.9 1047.68C1881.3 1055.08 1878.6 1066.08 1876.9 1072.18C1875.2 1078.18 1872.1 1088.98 1869.8 1096.18C1867.6 1103.28 1863.6 1114.98 1861 1122.18C1858.4 1129.28 1854.6 1139.18 1852.7 1144.18C1850.8 1149.08 1847.1 1158.08 1844.5 1164.18C1841.9 1170.18 1836.4 1182.58 1832.2 1191.68C1828 1200.78 1820.9 1215.58 1816.4 1224.68C1811.9 1233.78 1801.9 1252.88 1794.2 1267.18C1786.6 1281.48 1774.3 1304.18 1767 1317.68C1759.7 1331.18 1749.3 1351.18 1744 1362.18C1738.6 1373.18 1731.3 1388.98 1727.7 1397.18C1724.2 1405.48 1718.5 1419.38 1715.2 1428.18C1711.9 1436.98 1707.1 1450.68 1704.7 1458.68C1702.2 1466.68 1699 1477.68 1697.6 1483.18C1696.3 1488.68 1694.4 1497.18 1693.5 1502.18C1692.6 1507.08 1691.6 1517.68 1691.3 1525.68C1690.9 1536.78 1691.2 1542.38 1692.4 1549.68C1693.4 1554.88 1695.4 1562.28 1697.1 1566.18C1698.7 1569.98 1702 1575.78 1704.5 1578.98C1707 1582.08 1710.9 1585.98 1713.3 1587.48C1715.6 1589.08 1719.1 1590.88 1721 1591.58C1722.9 1592.28 1727.2 1593.18 1730.5 1593.68C1734.2 1594.28 1739.3 1594.18 1744 1593.58C1748.1 1592.98 1756 1591.08 1761.5 1589.28C1767 1587.38 1776.4 1583.58 1782.5 1580.78C1788.5 1577.88 1797.1 1573.18 1801.5 1570.18C1805.9 1567.28 1810.7 1563.58 1812.1 1561.98C1814 1559.98 1814.9 1557.58 1815.4 1553.68C1815.7 1550.68 1816.9 1546.78 1817.9 1545.18C1818.9 1543.48 1821.7 1541.18 1824.1 1539.98C1826.5 1538.68 1830.5 1537.48 1833 1537.08C1835.8 1536.68 1839 1536.88 1841.5 1537.78C1843.7 1538.48 1847 1540.48 1848.9 1542.08C1850.7 1543.78 1852.9 1546.48 1853.8 1548.18C1854.6 1549.78 1855.9 1555.18 1856.6 1560.18C1857.4 1565.08 1858 1572.58 1858 1576.68C1858 1580.78 1857.5 1586.88 1856.9 1590.18C1856.3 1593.48 1854.3 1599.08 1852.5 1602.68C1850.7 1606.28 1846.3 1613.48 1842.7 1618.68C1839.1 1623.88 1833.1 1631.18 1829.4 1634.78C1825.6 1638.38 1819.1 1643.58 1815 1646.38C1810.9 1649.18 1802.3 1654.18 1796 1657.48C1789.7 1660.88 1780.4 1664.88 1775.5 1666.58C1770.5 1668.18 1763.6 1670.08 1760 1670.78C1756.4 1671.38 1753.1 1672.38 1752.5 1672.78C1752 1673.28 1744.7 1673.68 1736.3 1673.68C1727.9 1673.68 1719.1 1673.28 1716.8 1672.68C1714.4 1672.18 1707.1 1671.08 1700.5 1670.18C1693.9 1669.28 1681.8 1666.78 1673.5 1664.68C1665.3 1662.58 1652.6 1658.78 1645.5 1656.18C1638.3 1653.58 1629.1 1649.58 1625 1647.38C1620.9 1645.18 1615 1641.78 1612 1639.88C1609 1637.98 1601.3 1632.48 1595 1627.68C1588.7 1622.78 1578.5 1614.58 1572.5 1609.38C1566.4 1604.18 1556.7 1594.58 1550.8 1588.08C1544.9 1581.58 1538.3 1573.68 1536 1570.68C1533.7 1567.68 1529.3 1561.08 1526.3 1556.18C1523.2 1551.18 1519.3 1544.28 1517.7 1540.68C1516 1537.08 1513.2 1529.88 1511.4 1524.68C1509.5 1519.48 1507.7 1515.08 1507.3 1514.88C1506.8 1514.78 1504 1518.08 1501 1522.28C1498 1526.48 1492.6 1532.68 1489 1535.98C1485.4 1539.18 1477.3 1545.78 1471 1550.58C1464.7 1555.38 1454.3 1562.68 1448 1566.78C1441.7 1570.98 1431.1 1577.38 1424.5 1581.18C1417.9 1584.98 1404.8 1591.98 1395.5 1596.68C1381.3 1603.98 1374.4 1606.68 1353.5 1613.48C1339.8 1617.98 1321.5 1623.58 1313 1626.08C1304.5 1628.48 1287.8 1632.38 1276 1634.58C1264.2 1636.88 1249.8 1639.28 1244 1640.08C1238.2 1640.88 1220.9 1642.88 1205.5 1644.58C1190.1 1646.18 1172.3 1648.08 1166 1648.68C1159.7 1649.28 1146.6 1649.78 1137 1649.88C1127.4 1649.88 1102.6 1649.88 1082 1649.78C1061.4 1649.78 1035 1650.08 1023.5 1650.68C1011.9 1651.18 987.9 1651.78 970 1651.98C952.1 1652.18 928 1651.98 916.5 1651.58C904.9 1651.18 886 1650.08 874.5 1649.18C862.9 1648.38 847.2 1646.68 839.5 1645.58C831.8 1644.48 816.4 1642.08 805.2 1640.18C794.1 1638.28 776.6 1634.88 766.2 1632.58C755.9 1630.38 739.4 1626.58 729.5 1624.08C719.6 1621.58 706.1 1617.98 699.5 1616.08C692.9 1614.08 680.3 1609.88 671.5 1606.58C662.7 1603.38 645.8 1595.88 634 1589.88C622.2 1583.98 607.8 1576.28 602.2 1572.68C596.5 1569.08 586.4 1562.08 579.7 1557.08C573 1551.98 562.5 1543.48 556.5 1537.98C550.4 1532.58 541.1 1523.18 535.6 1517.18C530.2 1511.08 522.5 1501.88 518.6 1496.68C514.6 1491.48 508.9 1483.38 505.8 1478.68C502.8 1473.98 497.6 1465.18 494.3 1459.18C491 1453.08 487 1445.48 485.5 1442.18C484 1438.88 481.6 1433.68 480.2 1430.68C478.9 1427.68 476.4 1421.38 474.9 1416.68C473.3 1411.98 471.1 1404.58 470.1 1400.18C469 1395.78 467.4 1387.08 466.6 1380.98C465.7 1374.78 465 1367.78 465 1361.18L456.8 1360.38C452.2 1359.88 443.1 1358.68 436.5 1357.68C429.9 1356.58 420.4 1354.58 415.5 1353.28C410.5 1351.98 401.8 1348.98 396 1346.68C390.2 1344.38 377.8 1338.78 368.5 1334.18C359.1 1329.48 345.6 1322.28 338.5 1317.98C331.3 1313.68 320.1 1306.38 313.5 1301.68C307 1296.98 294.9 1287.48 286.6 1280.58C278.3 1273.68 264.5 1261.08 256 1252.58C247.5 1244.08 235.3 1231.08 229 1223.68C222.6 1216.28 213.4 1205.18 208.5 1199.18C203.7 1193.08 193.3 1179.58 185.5 1169.18C177.7 1158.68 168.1 1145.48 164 1139.68C160 1133.88 154 1124.68 150.7 1119.18C147.4 1113.68 142.1 1103.78 138.9 1097.18C135.7 1090.58 131.3 1079.78 129 1073.18C126.8 1066.58 124.3 1057.38 123.4 1052.68C122.6 1047.98 122 1040.58 122 1036.18C122 1031.78 122.7 1024.98 123.5 1021.18C124.3 1017.28 125.7 1012.18 126.6 1009.68C127.5 1007.18 130.3 1002.08 132.8 998.177C135.4 994.377 140.4 988.777 144.1 985.677C147.7 982.677 155.6 977.577 161.6 974.477C167.6 971.377 177.2 966.977 183 964.677C188.8 962.377 201.4 957.877 211 954.677C220.6 951.477 233.7 947.277 240 945.277C246.3 943.377 256.7 940.277 263 938.277C269.3 936.377 286.2 931.477 300.5 927.377C314.8 923.177 337.6 916.877 351.3 913.277C364.9 909.677 380.4 905.277 385.8 903.577C391.1 901.877 401.8 897.977 409.5 894.977C417.2 891.977 429.1 886.677 436 883.277C442.9 879.777 452.8 874.677 458 871.677C463.2 868.777 472.7 863.177 479 859.077C485.3 855.077 496.8 847.277 504.5 841.777C512.2 836.177 524.3 827.477 531.5 822.477C538.6 817.477 547.4 810.977 551 808.177C554.6 805.277 559.1 801.177 561 799.077C563 796.977 566.2 792.277 568.2 788.677C570.3 785.077 574.7 775.877 578.1 768.177C581.5 760.477 587.2 746.077 590.7 736.177C594.3 726.277 598.7 713.477 600.6 707.677C602.5 701.877 604.7 694.477 605.5 691.177C606.2 687.877 607.6 680.477 608.4 674.677C609.3 668.877 610.4 659.177 611 653.177C611.6 647.077 612.7 636.977 613.6 630.677C614.4 624.377 616 615.077 617.2 610.177C618.3 605.177 620.6 598.277 622.4 594.777C624.3 590.877 627.2 586.877 630 584.477C632.5 582.277 636.3 580.077 638.5 579.477C640.7 578.977 645.4 578.677 649 578.877C653.3 579.177 657.3 580.277 660.8 582.077C663.6 583.477 670.2 588.177 675.3 592.377C680.3 596.577 693.3 608.977 704 619.977C714.7 630.977 730.3 646.777 738.6 655.077C746.9 663.377 765.5 681.677 779.9 695.677C794.4 709.677 811.4 726.077 817.8 731.977C824.3 737.977 835.1 747.477 842 753.077C848.9 758.777 861.3 768.477 869.7 774.777C878 781.077 891.7 790.277 900.2 795.377C908.6 800.477 924.8 809.177 936.3 814.677C947.7 820.177 957.2 824.677 957.5 824.677C957.8 824.677 964.9 827.777 973.3 831.577C981.6 835.377 992.9 840.277 998.3 842.577C1003.6 844.877 1008.2 846.377 1008.5 845.877C1008.7 845.477 1007.4 842.777 1005.5 839.877C1003.6 837.077 1000.2 831.077 998 826.677C995.8 822.277 992.2 814.077 989.9 808.377C987.7 802.777 984.3 792.977 982.5 786.677C980.7 780.377 978.1 769.277 976.7 762.177C975.3 754.977 973.6 743.277 972.9 736.177C972.2 728.477 971.9 716.877 972.3 707.677C972.6 699.177 973.8 685.877 975 678.177C976.2 670.477 978.7 658.277 980.5 651.177C982.3 643.977 985.9 632.277 988.5 625.177C991.1 617.977 996.2 605.877 999.9 598.177C1003.6 590.477 1009.9 578.577 1013.9 571.677C1018 564.777 1024.7 554.177 1028.8 548.177C1032.9 542.077 1039.2 533.377 1042.9 528.677C1046.5 523.977 1054 514.977 1059.6 508.677C1065.1 502.377 1075.9 490.977 1083.6 483.277C1091.2 475.677 1103.3 464.377 1110.5 458.177C1117.6 451.977 1130.3 441.877 1138.5 435.677C1146.8 429.477 1159.1 420.677 1166 416.177C1172.9 411.677 1183.4 405.077 1189.5 401.677C1195.5 398.177 1207.5 391.877 1216 387.677C1224.5 383.377 1236.9 377.677 1243.5 374.977C1250.1 372.177 1260 368.277 1265.5 366.377C1271 364.377 1279.1 361.577 1283.5 360.277C1287.9 358.877 1296.9 356.377 1303.5 354.677C1310.1 352.977 1322 350.477 1330 349.077C1338 347.777 1348.3 346.377 1353 345.977C1357.7 345.677 1362.4 344.977 1363.5 344.577C1364.6 344.077 1375.2 343.877 1387 344.077Z" fill="white"/>
<mask id="path-2-outside-1_752_109" maskUnits="userSpaceOnUse" x="75" y="297" width="1867" height="1424" fill="black">
<rect fill="white" x="75" y="297" width="1867" height="1424"/>
<path fill-rule="evenodd" clip-rule="evenodd" d="M1387 344.077C1398.8 344.277 1414.3 345.077 1421.5 345.977C1428.6 346.877 1440.1 348.477 1447 349.677C1453.9 350.777 1465.1 353.077 1472 354.677C1478.9 356.277 1489.9 359.177 1496.5 361.177C1503.1 363.177 1512.8 366.377 1518 368.377C1523.2 370.277 1532.2 373.977 1538 376.377C1543.8 378.877 1553 383.177 1558.5 385.977C1564 388.677 1573.7 393.877 1580 397.477C1586.3 400.977 1596.7 407.277 1603 411.477C1609.3 415.577 1620.3 423.277 1627.5 428.677C1634.6 434.077 1644.5 441.877 1649.5 446.177C1654.4 450.377 1665.2 460.377 1673.4 468.477C1681.5 476.577 1693.5 488.977 1699.9 496.177C1706.3 503.277 1715.4 513.877 1720.1 519.677C1724.8 525.477 1734.5 537.777 1741.5 547.177C1748.5 556.477 1760 572.477 1767 582.677C1774 592.877 1784.3 608.377 1789.7 617.177C1795.2 625.977 1804.3 641.477 1810 651.677C1815.7 661.877 1824.5 678.677 1829.6 689.177C1834.6 699.577 1842.1 716.077 1846 725.677C1850 735.277 1855.7 749.677 1858.6 757.677C1861.5 765.677 1866.4 780.277 1869.4 790.177C1872.5 800.077 1877.3 817.177 1880 828.177C1882.7 839.177 1886.1 854.677 1887.4 862.677C1888.8 870.677 1890.9 885.477 1892.1 895.677C1893.9 910.777 1894.3 919.677 1894.4 944.177C1894.4 966.677 1894 977.977 1892.7 989.177C1891.7 997.477 1889.8 1010.98 1888.4 1019.18C1887.1 1027.48 1884.6 1040.28 1882.9 1047.68C1881.3 1055.08 1878.6 1066.08 1876.9 1072.18C1875.2 1078.18 1872.1 1088.98 1869.8 1096.18C1867.6 1103.28 1863.6 1114.98 1861 1122.18C1858.4 1129.28 1854.6 1139.18 1852.7 1144.18C1850.8 1149.08 1847.1 1158.08 1844.5 1164.18C1841.9 1170.18 1836.4 1182.58 1832.2 1191.68C1828 1200.78 1820.9 1215.58 1816.4 1224.68C1811.9 1233.78 1801.9 1252.88 1794.2 1267.18C1786.6 1281.48 1774.3 1304.18 1767 1317.68C1759.7 1331.18 1749.3 1351.18 1744 1362.18C1738.6 1373.18 1731.3 1388.98 1727.7 1397.18C1724.2 1405.48 1718.5 1419.38 1715.2 1428.18C1711.9 1436.98 1707.1 1450.68 1704.7 1458.68C1702.2 1466.68 1699 1477.68 1697.6 1483.18C1696.3 1488.68 1694.4 1497.18 1693.5 1502.18C1692.6 1507.08 1691.6 1517.68 1691.3 1525.68C1690.9 1536.78 1691.2 1542.38 1692.4 1549.68C1693.4 1554.88 1695.4 1562.28 1697.1 1566.18C1698.7 1569.98 1702 1575.78 1704.5 1578.98C1707 1582.08 1710.9 1585.98 1713.3 1587.48C1715.6 1589.08 1719.1 1590.88 1721 1591.58C1722.9 1592.28 1727.2 1593.18 1730.5 1593.68C1734.2 1594.28 1739.3 1594.18 1744 1593.58C1748.1 1592.98 1756 1591.08 1761.5 1589.28C1767 1587.38 1776.4 1583.58 1782.5 1580.78C1788.5 1577.88 1797.1 1573.18 1801.5 1570.18C1805.9 1567.28 1810.7 1563.58 1812.1 1561.98C1814 1559.98 1814.9 1557.58 1815.4 1553.68C1815.7 1550.68 1816.9 1546.78 1817.9 1545.18C1818.9 1543.48 1821.7 1541.18 1824.1 1539.98C1826.5 1538.68 1830.5 1537.48 1833 1537.08C1835.8 1536.68 1839 1536.88 1841.5 1537.78C1843.7 1538.48 1847 1540.48 1848.9 1542.08C1850.7 1543.78 1852.9 1546.48 1853.8 1548.18C1854.6 1549.78 1855.9 1555.18 1856.6 1560.18C1857.4 1565.08 1858 1572.58 1858 1576.68C1858 1580.78 1857.5 1586.88 1856.9 1590.18C1856.3 1593.48 1854.3 1599.08 1852.5 1602.68C1850.7 1606.28 1846.3 1613.48 1842.7 1618.68C1839.1 1623.88 1833.1 1631.18 1829.4 1634.78C1825.6 1638.38 1819.1 1643.58 1815 1646.38C1810.9 1649.18 1802.3 1654.18 1796 1657.48C1789.7 1660.88 1780.4 1664.88 1775.5 1666.58C1770.5 1668.18 1763.6 1670.08 1760 1670.78C1756.4 1671.38 1753.1 1672.38 1752.5 1672.78C1752 1673.28 1744.7 1673.68 1736.3 1673.68C1727.9 1673.68 1719.1 1673.28 1716.8 1672.68C1714.4 1672.18 1707.1 1671.08 1700.5 1670.18C1693.9 1669.28 1681.8 1666.78 1673.5 1664.68C1665.3 1662.58 1652.6 1658.78 1645.5 1656.18C1638.3 1653.58 1629.1 1649.58 1625 1647.38C1620.9 1645.18 1615 1641.78 1612 1639.88C1609 1637.98 1601.3 1632.48 1595 1627.68C1588.7 1622.78 1578.5 1614.58 1572.5 1609.38C1566.4 1604.18 1556.7 1594.58 1550.8 1588.08C1544.9 1581.58 1538.3 1573.68 1536 1570.68C1533.7 1567.68 1529.3 1561.08 1526.3 1556.18C1523.2 1551.18 1519.3 1544.28 1517.7 1540.68C1516 1537.08 1513.2 1529.88 1511.4 1524.68C1509.5 1519.48 1507.7 1515.08 1507.3 1514.88C1506.8 1514.78 1504 1518.08 1501 1522.28C1498 1526.48 1492.6 1532.68 1489 1535.98C1485.4 1539.18 1477.3 1545.78 1471 1550.58C1464.7 1555.38 1454.3 1562.68 1448 1566.78C1441.7 1570.98 1431.1 1577.38 1424.5 1581.18C1417.9 1584.98 1404.8 1591.98 1395.5 1596.68C1381.3 1603.98 1374.4 1606.68 1353.5 1613.48C1339.8 1617.98 1321.5 1623.58 1313 1626.08C1304.5 1628.48 1287.8 1632.38 1276 1634.58C1264.2 1636.88 1249.8 1639.28 1244 1640.08C1238.2 1640.88 1220.9 1642.88 1205.5 1644.58C1190.1 1646.18 1172.3 1648.08 1166 1648.68C1159.7 1649.28 1146.6 1649.78 1137 1649.88C1127.4 1649.88 1102.6 1649.88 1082 1649.78C1061.4 1649.78 1035 1650.08 1023.5 1650.68C1011.9 1651.18 987.9 1651.78 970 1651.98C952.1 1652.18 928 1651.98 916.5 1651.58C904.9 1651.18 886 1650.08 874.5 1649.18C862.9 1648.38 847.2 1646.68 839.5 1645.58C831.8 1644.48 816.4 1642.08 805.2 1640.18C794.1 1638.28 776.6 1634.88 766.2 1632.58C755.9 1630.38 739.4 1626.58 729.5 1624.08C719.6 1621.58 706.1 1617.98 699.5 1616.08C692.9 1614.08 680.3 1609.88 671.5 1606.58C662.7 1603.38 645.8 1595.88 634 1589.88C622.2 1583.98 607.8 1576.28 602.2 1572.68C596.5 1569.08 586.4 1562.08 579.7 1557.08C573 1551.98 562.5 1543.48 556.5 1537.98C550.4 1532.58 541.1 1523.18 535.6 1517.18C530.2 1511.08 522.5 1501.88 518.6 1496.68C514.6 1491.48 508.9 1483.38 505.8 1478.68C502.8 1473.98 497.6 1465.18 494.3 1459.18C491 1453.08 487 1445.48 485.5 1442.18C484 1438.88 481.6 1433.68 480.2 1430.68C478.9 1427.68 476.4 1421.38 474.9 1416.68C473.3 1411.98 471.1 1404.58 470.1 1400.18C469 1395.78 467.4 1387.08 466.6 1380.98C465.7 1374.78 465 1367.78 465 1361.18L456.8 1360.38C452.2 1359.88 443.1 1358.68 436.5 1357.68C429.9 1356.58 420.4 1354.58 415.5 1353.28C410.5 1351.98 401.8 1348.98 396 1346.68C390.2 1344.38 377.8 1338.78 368.5 1334.18C359.1 1329.48 345.6 1322.28 338.5 1317.98C331.3 1313.68 320.1 1306.38 313.5 1301.68C307 1296.98 294.9 1287.48 286.6 1280.58C278.3 1273.68 264.5 1261.08 256 1252.58C247.5 1244.08 235.3 1231.08 229 1223.68C222.6 1216.28 213.4 1205.18 208.5 1199.18C203.7 1193.08 193.3 1179.58 185.5 1169.18C177.7 1158.68 168.1 1145.48 164 1139.68C160 1133.88 154 1124.68 150.7 1119.18C147.4 1113.68 142.1 1103.78 138.9 1097.18C135.7 1090.58 131.3 1079.78 129 1073.18C126.8 1066.58 124.3 1057.38 123.4 1052.68C122.6 1047.98 122 1040.58 122 1036.18C122 1031.78 122.7 1024.98 123.5 1021.18C124.3 1017.28 125.7 1012.18 126.6 1009.68C127.5 1007.18 130.3 1002.08 132.8 998.177C135.4 994.377 140.4 988.777 144.1 985.677C147.7 982.677 155.6 977.577 161.6 974.477C167.6 971.377 177.2 966.977 183 964.677C188.8 962.377 201.4 957.877 211 954.677C220.6 951.477 233.7 947.277 240 945.277C246.3 943.377 256.7 940.277 263 938.277C269.3 936.377 286.2 931.477 300.5 927.377C314.8 923.177 337.6 916.877 351.3 913.277C364.9 909.677 380.4 905.277 385.8 903.577C391.1 901.877 401.8 897.977 409.5 894.977C417.2 891.977 429.1 886.677 436 883.277C442.9 879.777 452.8 874.677 458 871.677C463.2 868.777 472.7 863.177 479 859.077C485.3 855.077 496.8 847.277 504.5 841.777C512.2 836.177 524.3 827.477 531.5 822.477C538.6 817.477 547.4 810.977 551 808.177C554.6 805.277 559.1 801.177 561 799.077C563 796.977 566.2 792.277 568.2 788.677C570.3 785.077 574.7 775.877 578.1 768.177C581.5 760.477 587.2 746.077 590.7 736.177C594.3 726.277 598.7 713.477 600.6 707.677C602.5 701.877 604.7 694.477 605.5 691.177C606.2 687.877 607.6 680.477 608.4 674.677C609.3 668.877 610.4 659.177 611 653.177C611.6 647.077 612.7 636.977 613.6 630.677C614.4 624.377 616 615.077 617.2 610.177C618.3 605.177 620.6 598.277 622.4 594.777C624.3 590.877 627.2 586.877 630 584.477C632.5 582.277 636.3 580.077 638.5 579.477C640.7 578.977 645.4 578.677 649 578.877C653.3 579.177 657.3 580.277 660.8 582.077C663.6 583.477 670.2 588.177 675.3 592.377C680.3 596.577 693.3 608.977 704 619.977C714.7 630.977 730.3 646.777 738.6 655.077C746.9 663.377 765.5 681.677 779.9 695.677C794.4 709.677 811.4 726.077 817.8 731.977C824.3 737.977 835.1 747.477 842 753.077C848.9 758.777 861.3 768.477 869.7 774.777C878 781.077 891.7 790.277 900.2 795.377C908.6 800.477 924.8 809.177 936.3 814.677C947.7 820.177 957.2 824.677 957.5 824.677C957.8 824.677 964.9 827.777 973.3 831.577C981.6 835.377 992.9 840.277 998.3 842.577C1003.6 844.877 1008.2 846.377 1008.5 845.877C1008.7 845.477 1007.4 842.777 1005.5 839.877C1003.6 837.077 1000.2 831.077 998 826.677C995.8 822.277 992.2 814.077 989.9 808.377C987.7 802.777 984.3 792.977 982.5 786.677C980.7 780.377 978.1 769.277 976.7 762.177C975.3 754.977 973.6 743.277 972.9 736.177C972.2 728.477 971.9 716.877 972.3 707.677C972.6 699.177 973.8 685.877 975 678.177C976.2 670.477 978.7 658.277 980.5 651.177C982.3 643.977 985.9 632.277 988.5 625.177C991.1 617.977 996.2 605.877 999.9 598.177C1003.6 590.477 1009.9 578.577 1013.9 571.677C1018 564.777 1024.7 554.177 1028.8 548.177C1032.9 542.077 1039.2 533.377 1042.9 528.677C1046.5 523.977 1054 514.977 1059.6 508.677C1065.1 502.377 1075.9 490.977 1083.6 483.277C1091.2 475.677 1103.3 464.377 1110.5 458.177C1117.6 451.977 1130.3 441.877 1138.5 435.677C1146.8 429.477 1159.1 420.677 1166 416.177C1172.9 411.677 1183.4 405.077 1189.5 401.677C1195.5 398.177 1207.5 391.877 1216 387.677C1224.5 383.377 1236.9 377.677 1243.5 374.977C1250.1 372.177 1260 368.277 1265.5 366.377C1271 364.377 1279.1 361.577 1283.5 360.277C1287.9 358.877 1296.9 356.377 1303.5 354.677C1310.1 352.977 1322 350.477 1330 349.077C1338 347.777 1348.3 346.377 1353 345.977C1357.7 345.677 1362.4 344.977 1363.5 344.577C1364.6 344.077 1375.2 343.877 1387 344.077ZM604.4 809.677C600.5 814.377 591.5 823.777 584.4 830.577C577.3 837.477 566.5 846.677 560.5 851.177C554.4 855.577 541.4 865.177 531.5 872.377C521.6 879.577 507.4 889.277 500 893.877C492.6 898.577 481.5 905.077 475.5 908.377C469.4 911.777 458.9 917.277 452 920.677C445.1 924.177 432.1 929.877 423 933.377C413.9 936.877 400.6 941.577 393.5 943.777C386.3 945.977 375.3 949.877 369 952.377C362.7 954.877 354.3 958.477 350.5 960.377C346.6 962.377 339.7 966.477 335 969.577C330.4 972.677 322.5 979.277 317.5 984.277C312.6 989.277 306 996.877 303 1001.28C300 1005.58 294.9 1014.78 291.7 1021.68C288.5 1028.58 284.1 1038.48 281.9 1043.68C279.8 1048.88 277 1057.88 275.6 1063.68C274.2 1069.48 272.6 1079.58 272 1086.18C271.5 1092.78 271 1104.68 271 1112.68C271 1120.68 271.7 1131.68 272.5 1137.18C273.3 1142.68 274.7 1150.08 275.5 1153.68C276.4 1157.28 278.7 1165.08 280.7 1171.18C282.6 1177.18 285.7 1185.28 287.5 1189.18C289.2 1192.98 293.2 1200.18 296.3 1205.18C299.3 1210.08 303.7 1216.68 306 1219.68C308.3 1222.68 313.7 1229.18 318 1234.18C322.3 1239.08 330.2 1246.98 335.5 1251.68C340.9 1256.38 349.1 1263.08 353.9 1266.58C358.6 1270.08 367 1275.88 372.5 1279.48C378 1283.08 390.1 1290.38 399.5 1295.68C408.8 1301.08 424 1309.28 433.3 1314.08C448.6 1321.98 450.5 1322.68 455.8 1322.68C459.1 1322.68 462.1 1322.18 462.8 1321.38C463.7 1320.58 464 1315.48 464 1304.68C464.1 1292.88 464.6 1285.88 466.5 1275.18L468.9 1261.18C463.3 1249.58 460 1241.18 457.8 1235.18C455.6 1229.08 452.7 1219.68 451.3 1214.18C449.9 1208.68 447.9 1199.18 446.9 1193.18C445.9 1187.08 444.5 1174.48 443.8 1165.18C443 1152.28 443 1144.48 443.8 1133.18C444.5 1124.88 445.9 1113.48 446.9 1107.68C448 1101.88 449.8 1093.38 451 1088.68C452.2 1083.98 455 1074.78 457.1 1068.18C459.3 1061.58 463.6 1050.98 466.6 1044.68C469.7 1038.38 474.5 1029.38 477.3 1024.68C480.1 1019.98 486.2 1010.98 490.9 1004.68C495.5 998.377 502.1 989.777 505.5 985.677C508.9 981.577 514.6 975.977 518.1 973.277C521.6 970.577 526.5 967.477 529 966.377C532.3 964.877 535.7 964.277 542 964.277C549 964.177 551.3 964.577 554.8 966.477C557.1 967.677 560.1 970.377 561.4 972.377C562.7 974.477 564.1 977.477 564.5 979.177C564.8 980.777 564.7 984.077 564.1 986.377C563.5 988.777 561.5 992.277 559.8 994.277C557.6 996.677 554.833 998.343 551.5 999.277C548.8 1000.08 545.5 1000.68 544.3 1000.68C542.8 1000.68 540.4 1002.48 537.4 1005.88C534.8 1008.78 528.2 1017.88 522.8 1026.18C517.3 1034.38 510.4 1046.08 507.5 1052.18C504.5 1058.18 500.6 1067.48 498.6 1072.68C496.7 1077.88 494 1086.18 492.5 1091.18C491.1 1096.08 489.1 1104.48 488 1109.68C486.9 1114.88 485.5 1124.08 484.9 1130.18C484.2 1136.78 484 1147.78 484.4 1157.68C484.7 1166.78 485.7 1178.18 486.6 1183.18C487.5 1188.18 488.5 1191.78 489 1191.18C489.4 1190.58 492.1 1184.98 494.9 1178.68C497.7 1172.38 504.1 1159.48 509.2 1150.18C514.2 1140.78 521.5 1127.78 525.3 1121.18C529.2 1114.58 536.4 1102.88 541.3 1095.18C546.3 1087.48 553.6 1076.78 557.4 1071.28C561.3 1065.88 567.6 1057.58 571.4 1052.78C575.2 1048.08 584.2 1037.68 591.4 1029.68C598.6 1021.68 610.6 1009.08 618 1001.58C625.4 994.077 635.5 984.477 640.5 980.177C645.4 975.877 656.5 967.177 665 960.777C673.5 954.377 687 944.877 695 939.577C703 934.277 714.2 927.077 720 923.677C725.8 920.177 736.6 914.277 744 910.477C751.4 906.677 762.2 901.777 768 899.577C773.8 897.377 782.5 894.377 787.5 893.077C793 891.577 799.2 890.677 803.5 890.677C808.1 890.677 811.9 891.377 814.5 892.477C816.7 893.477 820.3 895.877 822.4 897.777C824.6 899.677 826.9 902.677 827.7 904.377C828.4 906.177 829 909.677 829 912.177C829 914.677 828.4 917.877 827.6 919.377C826.9 920.977 824.9 923.377 823.1 924.877C821.4 926.477 818.1 928.177 815.8 928.877C812.4 929.777 810.4 929.677 806.5 928.677C801.8 927.477 801 927.577 793.5 930.177C789.1 931.677 781.7 934.777 777 936.977C772.3 939.177 764.2 943.477 759 946.477C753.8 949.377 739.4 958.577 727 966.877C714.6 975.177 698.4 986.477 691 992.077C683.6 997.677 673 1006.08 667.5 1010.78C662 1015.58 651.8 1025.28 644.9 1032.28C638 1039.38 628.8 1048.98 624.4 1053.68C620.1 1058.38 613.1 1066.28 608.9 1071.18C604.8 1076.18 598.7 1083.78 595.4 1088.18C592 1092.58 586.2 1100.88 582.3 1106.68C578.4 1112.48 572.2 1122.08 568.5 1128.18C564.7 1134.18 557.5 1146.58 552.5 1155.68C547.4 1164.78 540.8 1177.08 537.7 1183.18C534.7 1189.18 531.1 1196.88 529.7 1200.18C528.3 1203.48 525.9 1210.68 524.2 1216.18C522.6 1221.68 520 1230.48 518.6 1235.68C516 1244.98 516 1245.18 517.9 1247.18C518.9 1248.28 520.6 1250.78 521.5 1252.68C522.5 1254.58 523.5 1259.08 523.8 1262.68C524.4 1269.18 524.4 1269.18 531 1275.48C534.6 1278.98 541.8 1285.08 547 1289.08C552.2 1292.98 560.5 1298.78 565.5 1301.78C570.4 1304.88 578.1 1309.18 582.5 1311.48C586.9 1313.68 594.3 1317.08 599 1318.98C603.7 1320.88 612.2 1324.08 618 1325.98C623.8 1327.98 632.1 1330.48 636.5 1331.58C640.9 1332.78 647.9 1334.38 652 1335.18C656.1 1335.98 664.4 1337.18 670.5 1337.78C677.1 1338.48 688.5 1338.68 699 1338.38C711 1337.98 719.5 1337.18 726 1335.68C731.2 1334.58 738.4 1332.68 742 1331.58C745.6 1330.38 753 1327.68 758.5 1325.48C764 1323.28 772.5 1319.48 777.5 1316.98C782.4 1314.48 789.6 1310.28 793.5 1307.68C797.3 1305.08 804.8 1299.18 810 1294.48C815.2 1289.78 822.7 1282.68 826.5 1278.58C830.4 1274.48 834.9 1269.18 836.7 1266.68C838.4 1264.18 841.6 1258.58 843.8 1254.18C846 1249.78 848.9 1243.28 850.3 1239.68C851.7 1236.08 853.8 1229.78 854.9 1225.68C856 1221.58 857.8 1212.78 859 1206.18C860.4 1197.48 860.9 1190.68 860.7 1181.18C860.5 1168.68 860.6 1167.98 863.3 1162.88C864.8 1160.08 867.9 1155.78 870.3 1153.48C872.9 1150.88 877.9 1147.68 883.5 1145.08C888.4 1142.78 896.5 1139.58 901.5 1137.88C906.4 1136.18 915.7 1133.78 922 1132.58C931.5 1130.68 936.7 1130.28 952 1130.18C966.3 1130.18 972.4 1130.58 979 1131.98C983.7 1133.08 988.7 1134.48 990.3 1135.28C991.8 1136.08 993 1136.38 993 1135.88C993 1135.48 993.7 1129.08 994.5 1121.68C995.3 1114.28 996.8 1103.88 997.9 1098.68C999 1093.48 1001.2 1084.68 1002.8 1079.18C1004.4 1073.68 1007.4 1064.88 1009.5 1059.68C1011.6 1054.48 1015.7 1045.48 1018.6 1039.68C1021.5 1033.88 1027.3 1023.98 1031.5 1017.68C1035.8 1011.38 1042.4 1002.38 1046.3 997.677C1050.1 992.977 1054.4 988.077 1055.9 986.877C1057.3 985.577 1060.3 983.677 1062.5 982.577C1064.7 981.577 1068.2 980.677 1070.3 980.677C1072.3 980.677 1075.7 981.377 1077.8 982.277C1079.8 983.077 1082.8 984.977 1084.4 986.477C1086 987.977 1088.1 990.977 1089.1 993.177C1090.1 995.377 1091 998.477 1091 1000.18C1091 1001.78 1090.3 1005.18 1089.5 1007.68C1088.6 1010.58 1085.3 1015.18 1080.4 1020.68C1076.3 1025.38 1069.7 1033.88 1065.8 1039.68C1061.9 1045.48 1056.4 1054.88 1053.5 1060.68C1050.6 1066.48 1046.6 1075.68 1044.7 1081.18C1042.8 1086.68 1040.1 1096.38 1038.7 1102.68C1037.3 1108.98 1035.6 1119.08 1034.9 1125.18C1034.2 1131.88 1034 1143.08 1034.3 1153.68C1034.7 1166.78 1035.5 1174.58 1037.5 1184.68C1039 1192.08 1042.1 1204.18 1044.6 1211.38C1047 1218.68 1051.4 1229.48 1054.3 1235.38C1057.3 1241.38 1062 1249.98 1065 1254.68C1067.9 1259.38 1072.8 1266.58 1075.8 1270.68C1078.9 1274.78 1087.1 1283.78 1094 1290.78C1100.9 1297.68 1110.4 1306.18 1115.2 1309.78C1119.9 1313.28 1128 1318.68 1133.2 1321.68C1138.3 1324.78 1147 1329.38 1152.5 1331.88C1158 1334.38 1167 1337.88 1172.5 1339.58C1178 1341.28 1187 1343.58 1192.5 1344.68C1198 1345.78 1208.3 1347.18 1215.5 1347.78C1224.7 1348.48 1232.3 1348.48 1241.5 1347.68C1248.6 1347.08 1258.8 1345.68 1264 1344.58C1269.2 1343.48 1276 1341.88 1279 1340.98C1282 1340.08 1288.3 1337.88 1293 1335.98C1297.7 1334.08 1305.1 1330.68 1309.5 1328.48C1313.9 1326.28 1320.9 1322.18 1325 1319.38C1329.1 1316.58 1335.6 1311.78 1339.5 1308.58C1343.3 1305.48 1350.1 1299.18 1354.6 1294.58C1359 1289.98 1365.3 1282.58 1368.6 1278.18C1372 1273.78 1376.8 1266.58 1379.5 1262.18C1382.1 1257.78 1386.1 1250.38 1388.2 1245.68C1390.4 1240.98 1393.4 1233.58 1394.9 1229.18C1396.5 1224.78 1398.8 1217.38 1400.1 1212.68C1401.4 1207.98 1403.7 1202.48 1405.2 1200.38C1406.8 1198.38 1409.8 1195.78 1412 1194.68C1414.4 1193.48 1418 1192.68 1421 1192.68C1423.8 1192.68 1427.2 1193.18 1428.8 1193.78C1430.3 1194.28 1432.8 1195.98 1434.4 1197.48C1436 1198.98 1438.1 1201.98 1439.1 1204.18C1440.1 1206.38 1441 1210.18 1441 1212.68C1441 1215.18 1439.7 1221.88 1438.1 1227.68C1436.4 1233.48 1432.8 1243.98 1430 1251.18C1427.2 1258.28 1422 1269.38 1418.5 1275.68C1415 1281.98 1408.8 1291.88 1404.7 1297.68C1400.6 1303.48 1393.2 1312.68 1388.3 1318.18C1383.3 1323.68 1375.5 1331.28 1371 1335.18C1366.5 1338.98 1360 1344.28 1356.6 1346.78C1353.3 1349.38 1346.4 1353.88 1341.5 1356.88C1336.5 1359.98 1328.4 1364.48 1323.5 1366.88C1318.5 1369.38 1309.5 1373.28 1303.5 1375.48C1297.4 1377.68 1288 1380.68 1282.5 1382.08C1277 1383.48 1268.2 1385.38 1263 1386.38C1255.6 1387.78 1248 1388.18 1228.5 1388.08C1208.8 1388.08 1201.4 1387.78 1193.5 1386.28C1188 1385.28 1179.2 1383.48 1174 1382.18C1168.8 1380.88 1159.8 1378.18 1154 1376.08C1148.2 1374.08 1138.1 1369.88 1131.5 1366.78C1124.9 1363.68 1115.7 1358.78 1111 1355.98C1106.3 1353.18 1097.5 1347.18 1091.5 1342.58C1085.4 1338.08 1076.7 1330.98 1072.1 1326.78C1067.5 1322.58 1059.2 1313.98 1053.8 1307.68C1048.3 1301.38 1040.4 1290.98 1036.1 1284.68C1031.8 1278.38 1026 1268.88 1023.2 1263.68C1020.4 1258.48 1016.1 1249.68 1013.7 1244.18C1011.2 1238.68 1007.6 1229.18 1005.7 1223.18C1003.7 1217.08 1001.2 1208.58 1000.1 1204.18C998.9 1199.78 997.1 1190.78 996 1184.18C994.9 1177.58 993.9 1172.08 993.7 1171.88C993.6 1171.78 992.3 1172.08 990.8 1172.68C989.2 1173.18 985.9 1173.68 983.3 1173.68C980.6 1173.68 976 1172.98 973 1172.08C969.5 1171.08 961.5 1170.28 951 1169.98C938.5 1169.58 932.3 1169.88 925.5 1171.08C920.5 1171.88 913.3 1173.58 909.5 1174.68L902.5 1176.78C901.5 1195.68 900 1207.48 898.6 1215.18C897.2 1222.88 895.2 1232.58 894.1 1236.68C893.1 1240.78 890.5 1248.48 888.5 1253.68C886.4 1258.88 882.2 1268.08 879.1 1274.18C876.1 1280.18 870.9 1288.68 867.8 1292.88C864.6 1297.18 857.1 1305.48 851.2 1311.38C845.2 1317.38 836.6 1325.38 831.9 1329.28C827.3 1333.28 819.7 1338.98 815 1342.08C810.3 1345.28 801.1 1350.58 794.5 1353.88C787.9 1357.28 776.2 1362.38 768.5 1365.18C760.8 1368.08 749.8 1371.58 744 1373.08C738.2 1374.58 729.4 1376.38 724.5 1377.28C719.5 1378.08 708.5 1379.08 700 1379.38C690.7 1379.68 679.1 1379.48 671 1378.78C663.6 1378.08 652.8 1376.58 647 1375.58C641.2 1374.48 632.2 1372.48 627 1371.18C621.8 1369.78 612.3 1366.98 606 1364.88C599.7 1362.68 589.8 1359.08 584 1356.78C578.2 1354.48 568.3 1349.88 562 1346.48C555.7 1343.18 546.4 1337.88 541.5 1334.78C536.5 1331.68 528.4 1326.08 523.5 1322.38C518.5 1318.68 514.2 1315.68 513.8 1315.68C513.3 1315.68 512.7 1316.48 512.4 1317.38C512.1 1318.38 511.2 1322.58 510.4 1326.68C509.7 1330.78 508.3 1339.38 507.5 1345.68C506.7 1351.98 506 1359.98 506 1363.38C506 1366.88 506.5 1372.98 507 1376.88C507.6 1380.88 508.8 1387.28 509.7 1391.18C510.6 1394.98 513.1 1402.88 515.2 1408.68C517.4 1414.48 522.2 1424.98 525.9 1432.18C529.6 1439.28 535.7 1449.88 539.5 1455.68C543.2 1461.48 549 1469.78 552.3 1474.18C555.7 1478.58 565.8 1489.68 574.9 1498.78C585.8 1509.58 595.8 1518.58 604 1524.58C610.9 1529.68 621.3 1536.78 627.3 1540.28C633.2 1543.78 644.2 1549.78 651.8 1553.58C661.6 1558.48 672.8 1562.88 691.5 1569.08C705.8 1573.78 725.4 1579.68 735 1582.18C744.6 1584.58 757.2 1587.48 763 1588.58C768.8 1589.68 779.6 1591.48 787 1592.58C794.4 1593.78 808.6 1595.58 818.5 1596.68C828.4 1597.78 849.5 1599.78 865.5 1601.18C881.4 1602.48 910.5 1604.58 930 1605.68C949.5 1606.78 972.5 1608.18 981 1608.58C990.1 1609.18 1028.5 1609.18 1073.5 1608.58C1115.8 1608.08 1157.5 1607.28 1166 1606.68C1174.5 1606.08 1193.4 1604.38 1208 1602.68C1222.6 1601.08 1239.4 1598.98 1245.5 1598.08C1251.5 1597.18 1256.7 1596.38 1257 1596.18C1257.3 1595.98 1263.1 1594.88 1270 1593.78C1276.9 1592.58 1286.8 1590.48 1292 1589.08C1297.2 1587.68 1307.3 1584.78 1314.5 1582.58C1321.6 1580.38 1334.5 1576.28 1343 1573.48C1351.5 1570.78 1365.3 1565.58 1373.5 1562.08C1381.8 1558.48 1393.9 1552.98 1400.5 1549.68C1407.1 1546.48 1417.2 1540.88 1423 1537.28C1428.8 1533.78 1438.2 1526.98 1444 1522.18C1449.8 1517.48 1457.5 1510.18 1461.3 1505.88C1465 1501.68 1470.4 1494.58 1473.4 1490.18C1476.4 1485.78 1482.3 1475.68 1486.5 1467.68C1490.8 1459.68 1496.1 1449.68 1498.2 1445.38C1500.3 1441.18 1502 1437.08 1502 1436.38C1502 1435.78 1503.4 1432.28 1505.1 1428.68C1506.8 1425.08 1511.7 1413.58 1516 1403.18C1520.3 1392.68 1525.4 1378.78 1527.3 1372.18C1529.2 1365.58 1531.9 1354.98 1533.3 1348.68C1534.7 1342.38 1536.7 1331.98 1537.7 1325.68C1539.2 1316.08 1539.4 1307.78 1539.4 1276.18V1238.18C1533.5 1205.58 1530.3 1191.68 1528.5 1186.18C1526.7 1180.68 1522.5 1169.68 1519.2 1161.68C1516 1153.68 1510.9 1142.48 1508.1 1136.68C1505.2 1130.88 1496.4 1116.38 1488.4 1104.38C1476.9 1086.98 1472.1 1080.68 1464.3 1072.88C1456.8 1065.38 1450 1059.88 1435.5 1049.98C1425 1042.78 1412.9 1034.68 1408.5 1031.98C1404.1 1029.18 1388.6 1020.98 1374 1013.58C1359.4 1006.18 1341.2 997.377 1333.5 993.977C1325.8 990.577 1314.1 985.677 1307.5 983.177C1300.9 980.577 1288.3 975.677 1279.5 972.177C1270.7 968.777 1255.8 963.477 1246.5 960.377C1237.1 957.377 1223.6 952.877 1216.5 950.377C1209.3 947.877 1195.6 943.777 1186 941.277C1176.4 938.877 1163.5 935.477 1157.5 933.877C1151.4 932.177 1138.8 929.277 1129.5 927.277C1120.1 925.377 1106.4 922.577 1099 921.177C1091.6 919.777 1075.1 916.877 1062.5 914.677C1049.8 912.577 1035 910.277 1029.5 909.577C1021.8 908.677 1018.7 908.677 1016 909.577C1014.1 910.177 1011.4 910.677 1010 910.677C1008.6 910.677 1005 909.377 1002 907.877C997.2 905.277 994.2 904.677 977 902.777C966.3 901.477 943.8 898.577 927 896.177C910.2 893.777 892 891.077 886.5 890.177C881 889.277 865.5 886.277 852 883.577C838.5 880.777 819.4 876.477 809.5 874.077C799.6 871.577 785.2 867.777 777.5 865.477C769.8 863.277 757 859.077 749 856.177C741 853.277 728 848.377 720 845.277C712 842.177 702.1 838.177 698 836.477C693.9 834.677 687.6 831.777 684 829.877C680.4 827.977 674.8 824.877 671.5 822.877C668.2 820.877 658.8 814.777 650.5 809.377C642.3 803.877 632.5 796.977 628.8 794.077C625 791.077 621.4 788.677 620.6 788.677C619.9 788.677 617.5 791.477 615.4 794.877C613.3 798.377 608.3 804.977 604.4 809.677ZM1610.5 1109.78C1607.8 1110.98 1602.6 1113.88 1599 1116.18C1595.4 1118.48 1590.1 1122.58 1587.1 1125.28C1584.2 1127.98 1579.7 1132.88 1577.2 1136.18C1574.7 1139.48 1571.2 1145.58 1569.3 1149.68C1567.4 1153.78 1565.6 1158.98 1565.3 1161.18C1564.9 1163.98 1565.7 1168.08 1567.9 1175.18C1569.6 1180.68 1571.7 1188.78 1572.5 1193.18C1573.4 1197.58 1575.2 1207.48 1576.6 1215.18C1578.7 1226.68 1579.3 1234.18 1580 1257.68C1580.5 1274.08 1580.5 1293.98 1580 1304.68C1579.5 1314.88 1578.2 1329.28 1577 1336.68C1575.8 1344.08 1574 1353.88 1572.9 1358.38C1571.9 1362.98 1571 1367.58 1571 1368.68C1571 1369.78 1571.6 1370.68 1572.3 1370.68C1572.9 1370.68 1577.1 1369.68 1581.5 1368.48C1587.1 1366.98 1591.7 1364.78 1597 1361.28C1601.1 1358.48 1608.6 1352.18 1613.6 1347.18C1619.6 1341.38 1625.2 1334.48 1629.6 1327.68C1633.4 1321.88 1639.3 1311.58 1642.7 1304.68C1646.2 1297.78 1650.8 1287.68 1653 1282.18C1655.1 1276.68 1657.8 1268.78 1659 1264.68C1660.1 1260.58 1661.7 1253.98 1662.5 1250.18C1663.3 1246.28 1664.4 1239.58 1665 1235.18C1665.6 1230.78 1666.4 1214.58 1666.7 1199.18C1667.1 1181.18 1666.8 1166.38 1666.1 1157.68C1665.4 1150.28 1664.2 1140.78 1663.4 1136.68C1662.5 1132.58 1660.6 1126.48 1659.2 1123.28C1657.4 1119.38 1654.8 1115.88 1651.5 1112.98C1648 1109.88 1644.6 1107.98 1640 1106.58C1636.4 1105.48 1631.9 1104.68 1630 1104.78C1628.1 1104.78 1624 1105.48 1621 1106.18C1618 1106.98 1613.3 1108.58 1610.5 1109.78ZM1245.5 1069.68C1248.3 1069.68 1252.4 1070.58 1254.8 1071.68C1257.1 1072.78 1260.7 1075.38 1262.8 1077.48C1264.8 1079.58 1267.5 1083.38 1268.8 1085.98C1270 1088.58 1272 1093.48 1273.1 1096.88C1275 1102.68 1275.2 1104.68 1274.7 1121.18C1274.4 1131.08 1273.4 1143.48 1272.5 1148.68C1271.6 1153.88 1269.7 1161.78 1268.2 1166.18C1266.7 1170.58 1264.2 1176.18 1262.5 1178.68C1260.8 1181.18 1257.5 1184.28 1255 1185.68C1251.5 1187.58 1249.1 1188.18 1244 1188.18C1238.9 1188.18 1236.3 1187.58 1232.5 1185.68C1228.9 1183.78 1226.7 1181.68 1224.5 1178.18C1222.8 1175.38 1220.9 1170.68 1220.2 1167.68C1219.5 1164.68 1218.3 1157.18 1217.5 1151.18C1216.7 1145.08 1216 1134.58 1216.1 1127.68C1216.1 1119.98 1216.8 1111.08 1217.9 1104.68C1218.9 1098.88 1220.7 1091.68 1221.8 1088.68C1223 1085.68 1225.2 1081.28 1226.7 1079.08C1228.63 1076.34 1231.4 1074.08 1235 1072.28C1238.8 1070.48 1242.1 1069.68 1245.5 1069.68ZM723.5 1074.78C726.3 1074.68 730.1 1075.18 732 1075.78C733.9 1076.48 737 1078.38 738.8 1080.08C740.7 1081.78 743.5 1085.78 745.1 1088.88C747.1 1092.88 748.5 1097.78 749.5 1104.88C750.3 1110.58 751 1120.98 751 1128.18C751 1135.28 750.5 1145.18 749.9 1150.18C749.3 1155.08 747.9 1162.58 746.9 1166.68C745.8 1170.78 743.5 1176.68 741.6 1179.68C739.8 1182.68 736.3 1186.58 733.9 1188.28C731.5 1189.98 727.5 1191.68 725 1192.08C722.4 1192.58 718.6 1192.38 716 1191.78C713.5 1191.18 709.6 1189.38 707.3 1187.68C704.9 1186.08 701.9 1182.78 700.5 1180.38C699.2 1178.08 697.1 1172.58 696 1168.18C694.9 1163.78 693.7 1155.18 693.3 1149.18C693 1143.08 693.3 1132.78 693.9 1126.18C694.5 1119.58 696.1 1109.48 697.4 1103.68C698.7 1097.88 700.9 1090.88 702.3 1088.18C703.7 1085.38 706.1 1081.98 707.7 1080.48C709.2 1078.98 712.3 1077.08 714.5 1076.28C716.7 1075.48 720.8 1074.78 723.5 1074.78ZM1621 1168.78C1622.4 1168.68 1625.5 1169.68 1627.9 1170.88C1631 1172.48 1633 1174.48 1634.7 1177.68C1636 1180.18 1637 1183.38 1637 1184.88C1637 1186.48 1635.9 1190.08 1634.6 1192.88C1633.2 1195.88 1631.6 1202.28 1630.9 1207.68C1630.1 1213.28 1629.6 1225.88 1629.6 1238.18C1629.7 1253.48 1630.1 1261.78 1631.4 1268.68C1632.8 1276.08 1632.9 1279.08 1632.1 1282.38C1631.5 1284.78 1629.5 1288.18 1627.8 1290.08C1625.8 1292.18 1622.7 1293.88 1620 1294.68C1617.5 1295.28 1614.1 1295.58 1612.5 1295.28C1610.8 1294.98 1607.9 1293.68 1606 1292.38C1604.1 1291.18 1601.5 1288.28 1600.3 1286.18C1599.1 1283.98 1597.6 1279.88 1597 1277.18C1596.4 1274.38 1595.5 1266.78 1595 1260.18C1594.3 1252.28 1594.3 1243.28 1595 1233.68C1595.5 1225.68 1596.9 1213.58 1598.1 1206.68C1599.3 1199.78 1601.3 1190.68 1602.6 1186.38C1604.5 1180.48 1606 1177.68 1609.3 1174.28C1611.6 1171.88 1614.6 1169.68 1616 1169.38C1617.4 1169.18 1619.6 1168.88 1621 1168.78Z"/>
</mask>
<path fill-rule="evenodd" clip-rule="evenodd" d="M1387 344.077C1398.8 344.277 1414.3 345.077 1421.5 345.977C1428.6 346.877 1440.1 348.477 1447 349.677C1453.9 350.777 1465.1 353.077 1472 354.677C1478.9 356.277 1489.9 359.177 1496.5 361.177C1503.1 363.177 1512.8 366.377 1518 368.377C1523.2 370.277 1532.2 373.977 1538 376.377C1543.8 378.877 1553 383.177 1558.5 385.977C1564 388.677 1573.7 393.877 1580 397.477C1586.3 400.977 1596.7 407.277 1603 411.477C1609.3 415.577 1620.3 423.277 1627.5 428.677C1634.6 434.077 1644.5 441.877 1649.5 446.177C1654.4 450.377 1665.2 460.377 1673.4 468.477C1681.5 476.577 1693.5 488.977 1699.9 496.177C1706.3 503.277 1715.4 513.877 1720.1 519.677C1724.8 525.477 1734.5 537.777 1741.5 547.177C1748.5 556.477 1760 572.477 1767 582.677C1774 592.877 1784.3 608.377 1789.7 617.177C1795.2 625.977 1804.3 641.477 1810 651.677C1815.7 661.877 1824.5 678.677 1829.6 689.177C1834.6 699.577 1842.1 716.077 1846 725.677C1850 735.277 1855.7 749.677 1858.6 757.677C1861.5 765.677 1866.4 780.277 1869.4 790.177C1872.5 800.077 1877.3 817.177 1880 828.177C1882.7 839.177 1886.1 854.677 1887.4 862.677C1888.8 870.677 1890.9 885.477 1892.1 895.677C1893.9 910.777 1894.3 919.677 1894.4 944.177C1894.4 966.677 1894 977.977 1892.7 989.177C1891.7 997.477 1889.8 1010.98 1888.4 1019.18C1887.1 1027.48 1884.6 1040.28 1882.9 1047.68C1881.3 1055.08 1878.6 1066.08 1876.9 1072.18C1875.2 1078.18 1872.1 1088.98 1869.8 1096.18C1867.6 1103.28 1863.6 1114.98 1861 1122.18C1858.4 1129.28 1854.6 1139.18 1852.7 1144.18C1850.8 1149.08 1847.1 1158.08 1844.5 1164.18C1841.9 1170.18 1836.4 1182.58 1832.2 1191.68C1828 1200.78 1820.9 1215.58 1816.4 1224.68C1811.9 1233.78 1801.9 1252.88 1794.2 1267.18C1786.6 1281.48 1774.3 1304.18 1767 1317.68C1759.7 1331.18 1749.3 1351.18 1744 1362.18C1738.6 1373.18 1731.3 1388.98 1727.7 1397.18C1724.2 1405.48 1718.5 1419.38 1715.2 1428.18C1711.9 1436.98 1707.1 1450.68 1704.7 1458.68C1702.2 1466.68 1699 1477.68 1697.6 1483.18C1696.3 1488.68 1694.4 1497.18 1693.5 1502.18C1692.6 1507.08 1691.6 1517.68 1691.3 1525.68C1690.9 1536.78 1691.2 1542.38 1692.4 1549.68C1693.4 1554.88 1695.4 1562.28 1697.1 1566.18C1698.7 1569.98 1702 1575.78 1704.5 1578.98C1707 1582.08 1710.9 1585.98 1713.3 1587.48C1715.6 1589.08 1719.1 1590.88 1721 1591.58C1722.9 1592.28 1727.2 1593.18 1730.5 1593.68C1734.2 1594.28 1739.3 1594.18 1744 1593.58C1748.1 1592.98 1756 1591.08 1761.5 1589.28C1767 1587.38 1776.4 1583.58 1782.5 1580.78C1788.5 1577.88 1797.1 1573.18 1801.5 1570.18C1805.9 1567.28 1810.7 1563.58 1812.1 1561.98C1814 1559.98 1814.9 1557.58 1815.4 1553.68C1815.7 1550.68 1816.9 1546.78 1817.9 1545.18C1818.9 1543.48 1821.7 1541.18 1824.1 1539.98C1826.5 1538.68 1830.5 1537.48 1833 1537.08C1835.8 1536.68 1839 1536.88 1841.5 1537.78C1843.7 1538.48 1847 1540.48 1848.9 1542.08C1850.7 1543.78 1852.9 1546.48 1853.8 1548.18C1854.6 1549.78 1855.9 1555.18 1856.6 1560.18C1857.4 1565.08 1858 1572.58 1858 1576.68C1858 1580.78 1857.5 1586.88 1856.9 1590.18C1856.3 1593.48 1854.3 1599.08 1852.5 1602.68C1850.7 1606.28 1846.3 1613.48 1842.7 1618.68C1839.1 1623.88 1833.1 1631.18 1829.4 1634.78C1825.6 1638.38 1819.1 1643.58 1815 1646.38C1810.9 1649.18 1802.3 1654.18 1796 1657.48C1789.7 1660.88 1780.4 1664.88 1775.5 1666.58C1770.5 1668.18 1763.6 1670.08 1760 1670.78C1756.4 1671.38 1753.1 1672.38 1752.5 1672.78C1752 1673.28 1744.7 1673.68 1736.3 1673.68C1727.9 1673.68 1719.1 1673.28 1716.8 1672.68C1714.4 1672.18 1707.1 1671.08 1700.5 1670.18C1693.9 1669.28 1681.8 1666.78 1673.5 1664.68C1665.3 1662.58 1652.6 1658.78 1645.5 1656.18C1638.3 1653.58 1629.1 1649.58 1625 1647.38C1620.9 1645.18 1615 1641.78 1612 1639.88C1609 1637.98 1601.3 1632.48 1595 1627.68C1588.7 1622.78 1578.5 1614.58 1572.5 1609.38C1566.4 1604.18 1556.7 1594.58 1550.8 1588.08C1544.9 1581.58 1538.3 1573.68 1536 1570.68C1533.7 1567.68 1529.3 1561.08 1526.3 1556.18C1523.2 1551.18 1519.3 1544.28 1517.7 1540.68C1516 1537.08 1513.2 1529.88 1511.4 1524.68C1509.5 1519.48 1507.7 1515.08 1507.3 1514.88C1506.8 1514.78 1504 1518.08 1501 1522.28C1498 1526.48 1492.6 1532.68 1489 1535.98C1485.4 1539.18 1477.3 1545.78 1471 1550.58C1464.7 1555.38 1454.3 1562.68 1448 1566.78C1441.7 1570.98 1431.1 1577.38 1424.5 1581.18C1417.9 1584.98 1404.8 1591.98 1395.5 1596.68C1381.3 1603.98 1374.4 1606.68 1353.5 1613.48C1339.8 1617.98 1321.5 1623.58 1313 1626.08C1304.5 1628.48 1287.8 1632.38 1276 1634.58C1264.2 1636.88 1249.8 1639.28 1244 1640.08C1238.2 1640.88 1220.9 1642.88 1205.5 1644.58C1190.1 1646.18 1172.3 1648.08 1166 1648.68C1159.7 1649.28 1146.6 1649.78 1137 1649.88C1127.4 1649.88 1102.6 1649.88 1082 1649.78C1061.4 1649.78 1035 1650.08 1023.5 1650.68C1011.9 1651.18 987.9 1651.78 970 1651.98C952.1 1652.18 928 1651.98 916.5 1651.58C904.9 1651.18 886 1650.08 874.5 1649.18C862.9 1648.38 847.2 1646.68 839.5 1645.58C831.8 1644.48 816.4 1642.08 805.2 1640.18C794.1 1638.28 776.6 1634.88 766.2 1632.58C755.9 1630.38 739.4 1626.58 729.5 1624.08C719.6 1621.58 706.1 1617.98 699.5 1616.08C692.9 1614.08 680.3 1609.88 671.5 1606.58C662.7 1603.38 645.8 1595.88 634 1589.88C622.2 1583.98 607.8 1576.28 602.2 1572.68C596.5 1569.08 586.4 1562.08 579.7 1557.08C573 1551.98 562.5 1543.48 556.5 1537.98C550.4 1532.58 541.1 1523.18 535.6 1517.18C530.2 1511.08 522.5 1501.88 518.6 1496.68C514.6 1491.48 508.9 1483.38 505.8 1478.68C502.8 1473.98 497.6 1465.18 494.3 1459.18C491 1453.08 487 1445.48 485.5 1442.18C484 1438.88 481.6 1433.68 480.2 1430.68C478.9 1427.68 476.4 1421.38 474.9 1416.68C473.3 1411.98 471.1 1404.58 470.1 1400.18C469 1395.78 467.4 1387.08 466.6 1380.98C465.7 1374.78 465 1367.78 465 1361.18L456.8 1360.38C452.2 1359.88 443.1 1358.68 436.5 1357.68C429.9 1356.58 420.4 1354.58 415.5 1353.28C410.5 1351.98 401.8 1348.98 396 1346.68C390.2 1344.38 377.8 1338.78 368.5 1334.18C359.1 1329.48 345.6 1322.28 338.5 1317.98C331.3 1313.68 320.1 1306.38 313.5 1301.68C307 1296.98 294.9 1287.48 286.6 1280.58C278.3 1273.68 264.5 1261.08 256 1252.58C247.5 1244.08 235.3 1231.08 229 1223.68C222.6 1216.28 213.4 1205.18 208.5 1199.18C203.7 1193.08 193.3 1179.58 185.5 1169.18C177.7 1158.68 168.1 1145.48 164 1139.68C160 1133.88 154 1124.68 150.7 1119.18C147.4 1113.68 142.1 1103.78 138.9 1097.18C135.7 1090.58 131.3 1079.78 129 1073.18C126.8 1066.58 124.3 1057.38 123.4 1052.68C122.6 1047.98 122 1040.58 122 1036.18C122 1031.78 122.7 1024.98 123.5 1021.18C124.3 1017.28 125.7 1012.18 126.6 1009.68C127.5 1007.18 130.3 1002.08 132.8 998.177C135.4 994.377 140.4 988.777 144.1 985.677C147.7 982.677 155.6 977.577 161.6 974.477C167.6 971.377 177.2 966.977 183 964.677C188.8 962.377 201.4 957.877 211 954.677C220.6 951.477 233.7 947.277 240 945.277C246.3 943.377 256.7 940.277 263 938.277C269.3 936.377 286.2 931.477 300.5 927.377C314.8 923.177 337.6 916.877 351.3 913.277C364.9 909.677 380.4 905.277 385.8 903.577C391.1 901.877 401.8 897.977 409.5 894.977C417.2 891.977 429.1 886.677 436 883.277C442.9 879.777 452.8 874.677 458 871.677C463.2 868.777 472.7 863.177 479 859.077C485.3 855.077 496.8 847.277 504.5 841.777C512.2 836.177 524.3 827.477 531.5 822.477C538.6 817.477 547.4 810.977 551 808.177C554.6 805.277 559.1 801.177 561 799.077C563 796.977 566.2 792.277 568.2 788.677C570.3 785.077 574.7 775.877 578.1 768.177C581.5 760.477 587.2 746.077 590.7 736.177C594.3 726.277 598.7 713.477 600.6 707.677C602.5 701.877 604.7 694.477 605.5 691.177C606.2 687.877 607.6 680.477 608.4 674.677C609.3 668.877 610.4 659.177 611 653.177C611.6 647.077 612.7 636.977 613.6 630.677C614.4 624.377 616 615.077 617.2 610.177C618.3 605.177 620.6 598.277 622.4 594.777C624.3 590.877 627.2 586.877 630 584.477C632.5 582.277 636.3 580.077 638.5 579.477C640.7 578.977 645.4 578.677 649 578.877C653.3 579.177 657.3 580.277 660.8 582.077C663.6 583.477 670.2 588.177 675.3 592.377C680.3 596.577 693.3 608.977 704 619.977C714.7 630.977 730.3 646.777 738.6 655.077C746.9 663.377 765.5 681.677 779.9 695.677C794.4 709.677 811.4 726.077 817.8 731.977C824.3 737.977 835.1 747.477 842 753.077C848.9 758.777 861.3 768.477 869.7 774.777C878 781.077 891.7 790.277 900.2 795.377C908.6 800.477 924.8 809.177 936.3 814.677C947.7 820.177 957.2 824.677 957.5 824.677C957.8 824.677 964.9 827.777 973.3 831.577C981.6 835.377 992.9 840.277 998.3 842.577C1003.6 844.877 1008.2 846.377 1008.5 845.877C1008.7 845.477 1007.4 842.777 1005.5 839.877C1003.6 837.077 1000.2 831.077 998 826.677C995.8 822.277 992.2 814.077 989.9 808.377C987.7 802.777 984.3 792.977 982.5 786.677C980.7 780.377 978.1 769.277 976.7 762.177C975.3 754.977 973.6 743.277 972.9 736.177C972.2 728.477 971.9 716.877 972.3 707.677C972.6 699.177 973.8 685.877 975 678.177C976.2 670.477 978.7 658.277 980.5 651.177C982.3 643.977 985.9 632.277 988.5 625.177C991.1 617.977 996.2 605.877 999.9 598.177C1003.6 590.477 1009.9 578.577 1013.9 571.677C1018 564.777 1024.7 554.177 1028.8 548.177C1032.9 542.077 1039.2 533.377 1042.9 528.677C1046.5 523.977 1054 514.977 1059.6 508.677C1065.1 502.377 1075.9 490.977 1083.6 483.277C1091.2 475.677 1103.3 464.377 1110.5 458.177C1117.6 451.977 1130.3 441.877 1138.5 435.677C1146.8 429.477 1159.1 420.677 1166 416.177C1172.9 411.677 1183.4 405.077 1189.5 401.677C1195.5 398.177 1207.5 391.877 1216 387.677C1224.5 383.377 1236.9 377.677 1243.5 374.977C1250.1 372.177 1260 368.277 1265.5 366.377C1271 364.377 1279.1 361.577 1283.5 360.277C1287.9 358.877 1296.9 356.377 1303.5 354.677C1310.1 352.977 1322 350.477 1330 349.077C1338 347.777 1348.3 346.377 1353 345.977C1357.7 345.677 1362.4 344.977 1363.5 344.577C1364.6 344.077 1375.2 343.877 1387 344.077ZM604.4 809.677C600.5 814.377 591.5 823.777 584.4 830.577C577.3 837.477 566.5 846.677 560.5 851.177C554.4 855.577 541.4 865.177 531.5 872.377C521.6 879.577 507.4 889.277 500 893.877C492.6 898.577 481.5 905.077 475.5 908.377C469.4 911.777 458.9 917.277 452 920.677C445.1 924.177 432.1 929.877 423 933.377C413.9 936.877 400.6 941.577 393.5 943.777C386.3 945.977 375.3 949.877 369 952.377C362.7 954.877 354.3 958.477 350.5 960.377C346.6 962.377 339.7 966.477 335 969.577C330.4 972.677 322.5 979.277 317.5 984.277C312.6 989.277 306 996.877 303 1001.28C300 1005.58 294.9 1014.78 291.7 1021.68C288.5 1028.58 284.1 1038.48 281.9 1043.68C279.8 1048.88 277 1057.88 275.6 1063.68C274.2 1069.48 272.6 1079.58 272 1086.18C271.5 1092.78 271 1104.68 271 1112.68C271 1120.68 271.7 1131.68 272.5 1137.18C273.3 1142.68 274.7 1150.08 275.5 1153.68C276.4 1157.28 278.7 1165.08 280.7 1171.18C282.6 1177.18 285.7 1185.28 287.5 1189.18C289.2 1192.98 293.2 1200.18 296.3 1205.18C299.3 1210.08 303.7 1216.68 306 1219.68C308.3 1222.68 313.7 1229.18 318 1234.18C322.3 1239.08 330.2 1246.98 335.5 1251.68C340.9 1256.38 349.1 1263.08 353.9 1266.58C358.6 1270.08 367 1275.88 372.5 1279.48C378 1283.08 390.1 1290.38 399.5 1295.68C408.8 1301.08 424 1309.28 433.3 1314.08C448.6 1321.98 450.5 1322.68 455.8 1322.68C459.1 1322.68 462.1 1322.18 462.8 1321.38C463.7 1320.58 464 1315.48 464 1304.68C464.1 1292.88 464.6 1285.88 466.5 1275.18L468.9 1261.18C463.3 1249.58 460 1241.18 457.8 1235.18C455.6 1229.08 452.7 1219.68 451.3 1214.18C449.9 1208.68 447.9 1199.18 446.9 1193.18C445.9 1187.08 444.5 1174.48 443.8 1165.18C443 1152.28 443 1144.48 443.8 1133.18C444.5 1124.88 445.9 1113.48 446.9 1107.68C448 1101.88 449.8 1093.38 451 1088.68C452.2 1083.98 455 1074.78 457.1 1068.18C459.3 1061.58 463.6 1050.98 466.6 1044.68C469.7 1038.38 474.5 1029.38 477.3 1024.68C480.1 1019.98 486.2 1010.98 490.9 1004.68C495.5 998.377 502.1 989.777 505.5 985.677C508.9 981.577 514.6 975.977 518.1 973.277C521.6 970.577 526.5 967.477 529 966.377C532.3 964.877 535.7 964.277 542 964.277C549 964.177 551.3 964.577 554.8 966.477C557.1 967.677 560.1 970.377 561.4 972.377C562.7 974.477 564.1 977.477 564.5 979.177C564.8 980.777 564.7 984.077 564.1 986.377C563.5 988.777 561.5 992.277 559.8 994.277C557.6 996.677 554.833 998.343 551.5 999.277C548.8 1000.08 545.5 1000.68 544.3 1000.68C542.8 1000.68 540.4 1002.48 537.4 1005.88C534.8 1008.78 528.2 1017.88 522.8 1026.18C517.3 1034.38 510.4 1046.08 507.5 1052.18C504.5 1058.18 500.6 1067.48 498.6 1072.68C496.7 1077.88 494 1086.18 492.5 1091.18C491.1 1096.08 489.1 1104.48 488 1109.68C486.9 1114.88 485.5 1124.08 484.9 1130.18C484.2 1136.78 484 1147.78 484.4 1157.68C484.7 1166.78 485.7 1178.18 486.6 1183.18C487.5 1188.18 488.5 1191.78 489 1191.18C489.4 1190.58 492.1 1184.98 494.9 1178.68C497.7 1172.38 504.1 1159.48 509.2 1150.18C514.2 1140.78 521.5 1127.78 525.3 1121.18C529.2 1114.58 536.4 1102.88 541.3 1095.18C546.3 1087.48 553.6 1076.78 557.4 1071.28C561.3 1065.88 567.6 1057.58 571.4 1052.78C575.2 1048.08 584.2 1037.68 591.4 1029.68C598.6 1021.68 610.6 1009.08 618 1001.58C625.4 994.077 635.5 984.477 640.5 980.177C645.4 975.877 656.5 967.177 665 960.777C673.5 954.377 687 944.877 695 939.577C703 934.277 714.2 927.077 720 923.677C725.8 920.177 736.6 914.277 744 910.477C751.4 906.677 762.2 901.777 768 899.577C773.8 897.377 782.5 894.377 787.5 893.077C793 891.577 799.2 890.677 803.5 890.677C808.1 890.677 811.9 891.377 814.5 892.477C816.7 893.477 820.3 895.877 822.4 897.777C824.6 899.677 826.9 902.677 827.7 904.377C828.4 906.177 829 909.677 829 912.177C829 914.677 828.4 917.877 827.6 919.377C826.9 920.977 824.9 923.377 823.1 924.877C821.4 926.477 818.1 928.177 815.8 928.877C812.4 929.777 810.4 929.677 806.5 928.677C801.8 927.477 801 927.577 793.5 930.177C789.1 931.677 781.7 934.777 777 936.977C772.3 939.177 764.2 943.477 759 946.477C753.8 949.377 739.4 958.577 727 966.877C714.6 975.177 698.4 986.477 691 992.077C683.6 997.677 673 1006.08 667.5 1010.78C662 1015.58 651.8 1025.28 644.9 1032.28C638 1039.38 628.8 1048.98 624.4 1053.68C620.1 1058.38 613.1 1066.28 608.9 1071.18C604.8 1076.18 598.7 1083.78 595.4 1088.18C592 1092.58 586.2 1100.88 582.3 1106.68C578.4 1112.48 572.2 1122.08 568.5 1128.18C564.7 1134.18 557.5 1146.58 552.5 1155.68C547.4 1164.78 540.8 1177.08 537.7 1183.18C534.7 1189.18 531.1 1196.88 529.7 1200.18C528.3 1203.48 525.9 1210.68 524.2 1216.18C522.6 1221.68 520 1230.48 518.6 1235.68C516 1244.98 516 1245.18 517.9 1247.18C518.9 1248.28 520.6 1250.78 521.5 1252.68C522.5 1254.58 523.5 1259.08 523.8 1262.68C524.4 1269.18 524.4 1269.18 531 1275.48C534.6 1278.98 541.8 1285.08 547 1289.08C552.2 1292.98 560.5 1298.78 565.5 1301.78C570.4 1304.88 578.1 1309.18 582.5 1311.48C586.9 1313.68 594.3 1317.08 599 1318.98C603.7 1320.88 612.2 1324.08 618 1325.98C623.8 1327.98 632.1 1330.48 636.5 1331.58C640.9 1332.78 647.9 1334.38 652 1335.18C656.1 1335.98 664.4 1337.18 670.5 1337.78C677.1 1338.48 688.5 1338.68 699 1338.38C711 1337.98 719.5 1337.18 726 1335.68C731.2 1334.58 738.4 1332.68 742 1331.58C745.6 1330.38 753 1327.68 758.5 1325.48C764 1323.28 772.5 1319.48 777.5 1316.98C782.4 1314.48 789.6 1310.28 793.5 1307.68C797.3 1305.08 804.8 1299.18 810 1294.48C815.2 1289.78 822.7 1282.68 826.5 1278.58C830.4 1274.48 834.9 1269.18 836.7 1266.68C838.4 1264.18 841.6 1258.58 843.8 1254.18C846 1249.78 848.9 1243.28 850.3 1239.68C851.7 1236.08 853.8 1229.78 854.9 1225.68C856 1221.58 857.8 1212.78 859 1206.18C860.4 1197.48 860.9 1190.68 860.7 1181.18C860.5 1168.68 860.6 1167.98 863.3 1162.88C864.8 1160.08 867.9 1155.78 870.3 1153.48C872.9 1150.88 877.9 1147.68 883.5 1145.08C888.4 1142.78 896.5 1139.58 901.5 1137.88C906.4 1136.18 915.7 1133.78 922 1132.58C931.5 1130.68 936.7 1130.28 952 1130.18C966.3 1130.18 972.4 1130.58 979 1131.98C983.7 1133.08 988.7 1134.48 990.3 1135.28C991.8 1136.08 993 1136.38 993 1135.88C993 1135.48 993.7 1129.08 994.5 1121.68C995.3 1114.28 996.8 1103.88 997.9 1098.68C999 1093.48 1001.2 1084.68 1002.8 1079.18C1004.4 1073.68 1007.4 1064.88 1009.5 1059.68C1011.6 1054.48 1015.7 1045.48 1018.6 1039.68C1021.5 1033.88 1027.3 1023.98 1031.5 1017.68C1035.8 1011.38 1042.4 1002.38 1046.3 997.677C1050.1 992.977 1054.4 988.077 1055.9 986.877C1057.3 985.577 1060.3 983.677 1062.5 982.577C1064.7 981.577 1068.2 980.677 1070.3 980.677C1072.3 980.677 1075.7 981.377 1077.8 982.277C1079.8 983.077 1082.8 984.977 1084.4 986.477C1086 987.977 1088.1 990.977 1089.1 993.177C1090.1 995.377 1091 998.477 1091 1000.18C1091 1001.78 1090.3 1005.18 1089.5 1007.68C1088.6 1010.58 1085.3 1015.18 1080.4 1020.68C1076.3 1025.38 1069.7 1033.88 1065.8 1039.68C1061.9 1045.48 1056.4 1054.88 1053.5 1060.68C1050.6 1066.48 1046.6 1075.68 1044.7 1081.18C1042.8 1086.68 1040.1 1096.38 1038.7 1102.68C1037.3 1108.98 1035.6 1119.08 1034.9 1125.18C1034.2 1131.88 1034 1143.08 1034.3 1153.68C1034.7 1166.78 1035.5 1174.58 1037.5 1184.68C1039 1192.08 1042.1 1204.18 1044.6 1211.38C1047 1218.68 1051.4 1229.48 1054.3 1235.38C1057.3 1241.38 1062 1249.98 1065 1254.68C1067.9 1259.38 1072.8 1266.58 1075.8 1270.68C1078.9 1274.78 1087.1 1283.78 1094 1290.78C1100.9 1297.68 1110.4 1306.18 1115.2 1309.78C1119.9 1313.28 1128 1318.68 1133.2 1321.68C1138.3 1324.78 1147 1329.38 1152.5 1331.88C1158 1334.38 1167 1337.88 1172.5 1339.58C1178 1341.28 1187 1343.58 1192.5 1344.68C1198 1345.78 1208.3 1347.18 1215.5 1347.78C1224.7 1348.48 1232.3 1348.48 1241.5 1347.68C1248.6 1347.08 1258.8 1345.68 1264 1344.58C1269.2 1343.48 1276 1341.88 1279 1340.98C1282 1340.08 1288.3 1337.88 1293 1335.98C1297.7 1334.08 1305.1 1330.68 1309.5 1328.48C1313.9 1326.28 1320.9 1322.18 1325 1319.38C1329.1 1316.58 1335.6 1311.78 1339.5 1308.58C1343.3 1305.48 1350.1 1299.18 1354.6 1294.58C1359 1289.98 1365.3 1282.58 1368.6 1278.18C1372 1273.78 1376.8 1266.58 1379.5 1262.18C1382.1 1257.78 1386.1 1250.38 1388.2 1245.68C1390.4 1240.98 1393.4 1233.58 1394.9 1229.18C1396.5 1224.78 1398.8 1217.38 1400.1 1212.68C1401.4 1207.98 1403.7 1202.48 1405.2 1200.38C1406.8 1198.38 1409.8 1195.78 1412 1194.68C1414.4 1193.48 1418 1192.68 1421 1192.68C1423.8 1192.68 1427.2 1193.18 1428.8 1193.78C1430.3 1194.28 1432.8 1195.98 1434.4 1197.48C1436 1198.98 1438.1 1201.98 1439.1 1204.18C1440.1 1206.38 1441 1210.18 1441 1212.68C1441 1215.18 1439.7 1221.88 1438.1 1227.68C1436.4 1233.48 1432.8 1243.98 1430 1251.18C1427.2 1258.28 1422 1269.38 1418.5 1275.68C1415 1281.98 1408.8 1291.88 1404.7 1297.68C1400.6 1303.48 1393.2 1312.68 1388.3 1318.18C1383.3 1323.68 1375.5 1331.28 1371 1335.18C1366.5 1338.98 1360 1344.28 1356.6 1346.78C1353.3 1349.38 1346.4 1353.88 1341.5 1356.88C1336.5 1359.98 1328.4 1364.48 1323.5 1366.88C1318.5 1369.38 1309.5 1373.28 1303.5 1375.48C1297.4 1377.68 1288 1380.68 1282.5 1382.08C1277 1383.48 1268.2 1385.38 1263 1386.38C1255.6 1387.78 1248 1388.18 1228.5 1388.08C1208.8 1388.08 1201.4 1387.78 1193.5 1386.28C1188 1385.28 1179.2 1383.48 1174 1382.18C1168.8 1380.88 1159.8 1378.18 1154 1376.08C1148.2 1374.08 1138.1 1369.88 1131.5 1366.78C1124.9 1363.68 1115.7 1358.78 1111 1355.98C1106.3 1353.18 1097.5 1347.18 1091.5 1342.58C1085.4 1338.08 1076.7 1330.98 1072.1 1326.78C1067.5 1322.58 1059.2 1313.98 1053.8 1307.68C1048.3 1301.38 1040.4 1290.98 1036.1 1284.68C1031.8 1278.38 1026 1268.88 1023.2 1263.68C1020.4 1258.48 1016.1 1249.68 1013.7 1244.18C1011.2 1238.68 1007.6 1229.18 1005.7 1223.18C1003.7 1217.08 1001.2 1208.58 1000.1 1204.18C998.9 1199.78 997.1 1190.78 996 1184.18C994.9 1177.58 993.9 1172.08 993.7 1171.88C993.6 1171.78 992.3 1172.08 990.8 1172.68C989.2 1173.18 985.9 1173.68 983.3 1173.68C980.6 1173.68 976 1172.98 973 1172.08C969.5 1171.08 961.5 1170.28 951 1169.98C938.5 1169.58 932.3 1169.88 925.5 1171.08C920.5 1171.88 913.3 1173.58 909.5 1174.68L902.5 1176.78C901.5 1195.68 900 1207.48 898.6 1215.18C897.2 1222.88 895.2 1232.58 894.1 1236.68C893.1 1240.78 890.5 1248.48 888.5 1253.68C886.4 1258.88 882.2 1268.08 879.1 1274.18C876.1 1280.18 870.9 1288.68 867.8 1292.88C864.6 1297.18 857.1 1305.48 851.2 1311.38C845.2 1317.38 836.6 1325.38 831.9 1329.28C827.3 1333.28 819.7 1338.98 815 1342.08C810.3 1345.28 801.1 1350.58 794.5 1353.88C787.9 1357.28 776.2 1362.38 768.5 1365.18C760.8 1368.08 749.8 1371.58 744 1373.08C738.2 1374.58 729.4 1376.38 724.5 1377.28C719.5 1378.08 708.5 1379.08 700 1379.38C690.7 1379.68 679.1 1379.48 671 1378.78C663.6 1378.08 652.8 1376.58 647 1375.58C641.2 1374.48 632.2 1372.48 627 1371.18C621.8 1369.78 612.3 1366.98 606 1364.88C599.7 1362.68 589.8 1359.08 584 1356.78C578.2 1354.48 568.3 1349.88 562 1346.48C555.7 1343.18 546.4 1337.88 541.5 1334.78C536.5 1331.68 528.4 1326.08 523.5 1322.38C518.5 1318.68 514.2 1315.68 513.8 1315.68C513.3 1315.68 512.7 1316.48 512.4 1317.38C512.1 1318.38 511.2 1322.58 510.4 1326.68C509.7 1330.78 508.3 1339.38 507.5 1345.68C506.7 1351.98 506 1359.98 506 1363.38C506 1366.88 506.5 1372.98 507 1376.88C507.6 1380.88 508.8 1387.28 509.7 1391.18C510.6 1394.98 513.1 1402.88 515.2 1408.68C517.4 1414.48 522.2 1424.98 525.9 1432.18C529.6 1439.28 535.7 1449.88 539.5 1455.68C543.2 1461.48 549 1469.78 552.3 1474.18C555.7 1478.58 565.8 1489.68 574.9 1498.78C585.8 1509.58 595.8 1518.58 604 1524.58C610.9 1529.68 621.3 1536.78 627.3 1540.28C633.2 1543.78 644.2 1549.78 651.8 1553.58C661.6 1558.48 672.8 1562.88 691.5 1569.08C705.8 1573.78 725.4 1579.68 735 1582.18C744.6 1584.58 757.2 1587.48 763 1588.58C768.8 1589.68 779.6 1591.48 787 1592.58C794.4 1593.78 808.6 1595.58 818.5 1596.68C828.4 1597.78 849.5 1599.78 865.5 1601.18C881.4 1602.48 910.5 1604.58 930 1605.68C949.5 1606.78 972.5 1608.18 981 1608.58C990.1 1609.18 1028.5 1609.18 1073.5 1608.58C1115.8 1608.08 1157.5 1607.28 1166 1606.68C1174.5 1606.08 1193.4 1604.38 1208 1602.68C1222.6 1601.08 1239.4 1598.98 1245.5 1598.08C1251.5 1597.18 1256.7 1596.38 1257 1596.18C1257.3 1595.98 1263.1 1594.88 1270 1593.78C1276.9 1592.58 1286.8 1590.48 1292 1589.08C1297.2 1587.68 1307.3 1584.78 1314.5 1582.58C1321.6 1580.38 1334.5 1576.28 1343 1573.48C1351.5 1570.78 1365.3 1565.58 1373.5 1562.08C1381.8 1558.48 1393.9 1552.98 1400.5 1549.68C1407.1 1546.48 1417.2 1540.88 1423 1537.28C1428.8 1533.78 1438.2 1526.98 1444 1522.18C1449.8 1517.48 1457.5 1510.18 1461.3 1505.88C1465 1501.68 1470.4 1494.58 1473.4 1490.18C1476.4 1485.78 1482.3 1475.68 1486.5 1467.68C1490.8 1459.68 1496.1 1449.68 1498.2 1445.38C1500.3 1441.18 1502 1437.08 1502 1436.38C1502 1435.78 1503.4 1432.28 1505.1 1428.68C1506.8 1425.08 1511.7 1413.58 1516 1403.18C1520.3 1392.68 1525.4 1378.78 1527.3 1372.18C1529.2 1365.58 1531.9 1354.98 1533.3 1348.68C1534.7 1342.38 1536.7 1331.98 1537.7 1325.68C1539.2 1316.08 1539.4 1307.78 1539.4 1276.18V1238.18C1533.5 1205.58 1530.3 1191.68 1528.5 1186.18C1526.7 1180.68 1522.5 1169.68 1519.2 1161.68C1516 1153.68 1510.9 1142.48 1508.1 1136.68C1505.2 1130.88 1496.4 1116.38 1488.4 1104.38C1476.9 1086.98 1472.1 1080.68 1464.3 1072.88C1456.8 1065.38 1450 1059.88 1435.5 1049.98C1425 1042.78 1412.9 1034.68 1408.5 1031.98C1404.1 1029.18 1388.6 1020.98 1374 1013.58C1359.4 1006.18 1341.2 997.377 1333.5 993.977C1325.8 990.577 1314.1 985.677 1307.5 983.177C1300.9 980.577 1288.3 975.677 1279.5 972.177C1270.7 968.777 1255.8 963.477 1246.5 960.377C1237.1 957.377 1223.6 952.877 1216.5 950.377C1209.3 947.877 1195.6 943.777 1186 941.277C1176.4 938.877 1163.5 935.477 1157.5 933.877C1151.4 932.177 1138.8 929.277 1129.5 927.277C1120.1 925.377 1106.4 922.577 1099 921.177C1091.6 919.777 1075.1 916.877 1062.5 914.677C1049.8 912.577 1035 910.277 1029.5 909.577C1021.8 908.677 1018.7 908.677 1016 909.577C1014.1 910.177 1011.4 910.677 1010 910.677C1008.6 910.677 1005 909.377 1002 907.877C997.2 905.277 994.2 904.677 977 902.777C966.3 901.477 943.8 898.577 927 896.177C910.2 893.777 892 891.077 886.5 890.177C881 889.277 865.5 886.277 852 883.577C838.5 880.777 819.4 876.477 809.5 874.077C799.6 871.577 785.2 867.777 777.5 865.477C769.8 863.277 757 859.077 749 856.177C741 853.277 728 848.377 720 845.277C712 842.177 702.1 838.177 698 836.477C693.9 834.677 687.6 831.777 684 829.877C680.4 827.977 674.8 824.877 671.5 822.877C668.2 820.877 658.8 814.777 650.5 809.377C642.3 803.877 632.5 796.977 628.8 794.077C625 791.077 621.4 788.677 620.6 788.677C619.9 788.677 617.5 791.477 615.4 794.877C613.3 798.377 608.3 804.977 604.4 809.677ZM1610.5 1109.78C1607.8 1110.98 1602.6 1113.88 1599 1116.18C1595.4 1118.48 1590.1 1122.58 1587.1 1125.28C1584.2 1127.98 1579.7 1132.88 1577.2 1136.18C1574.7 1139.48 1571.2 1145.58 1569.3 1149.68C1567.4 1153.78 1565.6 1158.98 1565.3 1161.18C1564.9 1163.98 1565.7 1168.08 1567.9 1175.18C1569.6 1180.68 1571.7 1188.78 1572.5 1193.18C1573.4 1197.58 1575.2 1207.48 1576.6 1215.18C1578.7 1226.68 1579.3 1234.18 1580 1257.68C1580.5 1274.08 1580.5 1293.98 1580 1304.68C1579.5 1314.88 1578.2 1329.28 1577 1336.68C1575.8 1344.08 1574 1353.88 1572.9 1358.38C1571.9 1362.98 1571 1367.58 1571 1368.68C1571 1369.78 1571.6 1370.68 1572.3 1370.68C1572.9 1370.68 1577.1 1369.68 1581.5 1368.48C1587.1 1366.98 1591.7 1364.78 1597 1361.28C1601.1 1358.48 1608.6 1352.18 1613.6 1347.18C1619.6 1341.38 1625.2 1334.48 1629.6 1327.68C1633.4 1321.88 1639.3 1311.58 1642.7 1304.68C1646.2 1297.78 1650.8 1287.68 1653 1282.18C1655.1 1276.68 1657.8 1268.78 1659 1264.68C1660.1 1260.58 1661.7 1253.98 1662.5 1250.18C1663.3 1246.28 1664.4 1239.58 1665 1235.18C1665.6 1230.78 1666.4 1214.58 1666.7 1199.18C1667.1 1181.18 1666.8 1166.38 1666.1 1157.68C1665.4 1150.28 1664.2 1140.78 1663.4 1136.68C1662.5 1132.58 1660.6 1126.48 1659.2 1123.28C1657.4 1119.38 1654.8 1115.88 1651.5 1112.98C1648 1109.88 1644.6 1107.98 1640 1106.58C1636.4 1105.48 1631.9 1104.68 1630 1104.78C1628.1 1104.78 1624 1105.48 1621 1106.18C1618 1106.98 1613.3 1108.58 1610.5 1109.78ZM1245.5 1069.68C1248.3 1069.68 1252.4 1070.58 1254.8 1071.68C1257.1 1072.78 1260.7 1075.38 1262.8 1077.48C1264.8 1079.58 1267.5 1083.38 1268.8 1085.98C1270 1088.58 1272 1093.48 1273.1 1096.88C1275 1102.68 1275.2 1104.68 1274.7 1121.18C1274.4 1131.08 1273.4 1143.48 1272.5 1148.68C1271.6 1153.88 1269.7 1161.78 1268.2 1166.18C1266.7 1170.58 1264.2 1176.18 1262.5 1178.68C1260.8 1181.18 1257.5 1184.28 1255 1185.68C1251.5 1187.58 1249.1 1188.18 1244 1188.18C1238.9 1188.18 1236.3 1187.58 1232.5 1185.68C1228.9 1183.78 1226.7 1181.68 1224.5 1178.18C1222.8 1175.38 1220.9 1170.68 1220.2 1167.68C1219.5 1164.68 1218.3 1157.18 1217.5 1151.18C1216.7 1145.08 1216 1134.58 1216.1 1127.68C1216.1 1119.98 1216.8 1111.08 1217.9 1104.68C1218.9 1098.88 1220.7 1091.68 1221.8 1088.68C1223 1085.68 1225.2 1081.28 1226.7 1079.08C1228.63 1076.34 1231.4 1074.08 1235 1072.28C1238.8 1070.48 1242.1 1069.68 1245.5 1069.68ZM723.5 1074.78C726.3 1074.68 730.1 1075.18 732 1075.78C733.9 1076.48 737 1078.38 738.8 1080.08C740.7 1081.78 743.5 1085.78 745.1 1088.88C747.1 1092.88 748.5 1097.78 749.5 1104.88C750.3 1110.58 751 1120.98 751 1128.18C751 1135.28 750.5 1145.18 749.9 1150.18C749.3 1155.08 747.9 1162.58 746.9 1166.68C745.8 1170.78 743.5 1176.68 741.6 1179.68C739.8 1182.68 736.3 1186.58 733.9 1188.28C731.5 1189.98 727.5 1191.68 725 1192.08C722.4 1192.58 718.6 1192.38 716 1191.78C713.5 1191.18 709.6 1189.38 707.3 1187.68C704.9 1186.08 701.9 1182.78 700.5 1180.38C699.2 1178.08 697.1 1172.58 696 1168.18C694.9 1163.78 693.7 1155.18 693.3 1149.18C693 1143.08 693.3 1132.78 693.9 1126.18C694.5 1119.58 696.1 1109.48 697.4 1103.68C698.7 1097.88 700.9 1090.88 702.3 1088.18C703.7 1085.38 706.1 1081.98 707.7 1080.48C709.2 1078.98 712.3 1077.08 714.5 1076.28C716.7 1075.48 720.8 1074.78 723.5 1074.78ZM1621 1168.78C1622.4 1168.68 1625.5 1169.68 1627.9 1170.88C1631 1172.48 1633 1174.48 1634.7 1177.68C1636 1180.18 1637 1183.38 1637 1184.88C1637 1186.48 1635.9 1190.08 1634.6 1192.88C1633.2 1195.88 1631.6 1202.28 1630.9 1207.68C1630.1 1213.28 1629.6 1225.88 1629.6 1238.18C1629.7 1253.48 1630.1 1261.78 1631.4 1268.68C1632.8 1276.08 1632.9 1279.08 1632.1 1282.38C1631.5 1284.78 1629.5 1288.18 1627.8 1290.08C1625.8 1292.18 1622.7 1293.88 1620 1294.68C1617.5 1295.28 1614.1 1295.58 1612.5 1295.28C1610.8 1294.98 1607.9 1293.68 1606 1292.38C1604.1 1291.18 1601.5 1288.28 1600.3 1286.18C1599.1 1283.98 1597.6 1279.88 1597 1277.18C1596.4 1274.38 1595.5 1266.78 1595 1260.18C1594.3 1252.28 1594.3 1243.28 1595 1233.68C1595.5 1225.68 1596.9 1213.58 1598.1 1206.68C1599.3 1199.78 1601.3 1190.68 1602.6 1186.38C1604.5 1180.48 1606 1177.68 1609.3 1174.28C1611.6 1171.88 1614.6 1169.68 1616 1169.38C1617.4 1169.18 1619.6 1168.88 1621 1168.78Z" fill="#010101"/>
<path fill-rule="evenodd" clip-rule="evenodd" d="M1387 344.077C1398.8 344.277 1414.3 345.077 1421.5 345.977C1428.6 346.877 1440.1 348.477 1447 349.677C1453.9 350.777 1465.1 353.077 1472 354.677C1478.9 356.277 1489.9 359.177 1496.5 361.177C1503.1 363.177 1512.8 366.377 1518 368.377C1523.2 370.277 1532.2 373.977 1538 376.377C1543.8 378.877 1553 383.177 1558.5 385.977C1564 388.677 1573.7 393.877 1580 397.477C1586.3 400.977 1596.7 407.277 1603 411.477C1609.3 415.577 1620.3 423.277 1627.5 428.677C1634.6 434.077 1644.5 441.877 1649.5 446.177C1654.4 450.377 1665.2 460.377 1673.4 468.477C1681.5 476.577 1693.5 488.977 1699.9 496.177C1706.3 503.277 1715.4 513.877 1720.1 519.677C1724.8 525.477 1734.5 537.777 1741.5 547.177C1748.5 556.477 1760 572.477 1767 582.677C1774 592.877 1784.3 608.377 1789.7 617.177C1795.2 625.977 1804.3 641.477 1810 651.677C1815.7 661.877 1824.5 678.677 1829.6 689.177C1834.6 699.577 1842.1 716.077 1846 725.677C1850 735.277 1855.7 749.677 1858.6 757.677C1861.5 765.677 1866.4 780.277 1869.4 790.177C1872.5 800.077 1877.3 817.177 1880 828.177C1882.7 839.177 1886.1 854.677 1887.4 862.677C1888.8 870.677 1890.9 885.477 1892.1 895.677C1893.9 910.777 1894.3 919.677 1894.4 944.177C1894.4 966.677 1894 977.977 1892.7 989.177C1891.7 997.477 1889.8 1010.98 1888.4 1019.18C1887.1 1027.48 1884.6 1040.28 1882.9 1047.68C1881.3 1055.08 1878.6 1066.08 1876.9 1072.18C1875.2 1078.18 1872.1 1088.98 1869.8 1096.18C1867.6 1103.28 1863.6 1114.98 1861 1122.18C1858.4 1129.28 1854.6 1139.18 1852.7 1144.18C1850.8 1149.08 1847.1 1158.08 1844.5 1164.18C1841.9 1170.18 1836.4 1182.58 1832.2 1191.68C1828 1200.78 1820.9 1215.58 1816.4 1224.68C1811.9 1233.78 1801.9 1252.88 1794.2 1267.18C1786.6 1281.48 1774.3 1304.18 1767 1317.68C1759.7 1331.18 1749.3 1351.18 1744 1362.18C1738.6 1373.18 1731.3 1388.98 1727.7 1397.18C1724.2 1405.48 1718.5 1419.38 1715.2 1428.18C1711.9 1436.98 1707.1 1450.68 1704.7 1458.68C1702.2 1466.68 1699 1477.68 1697.6 1483.18C1696.3 1488.68 1694.4 1497.18 1693.5 1502.18C1692.6 1507.08 1691.6 1517.68 1691.3 1525.68C1690.9 1536.78 1691.2 1542.38 1692.4 1549.68C1693.4 1554.88 1695.4 1562.28 1697.1 1566.18C1698.7 1569.98 1702 1575.78 1704.5 1578.98C1707 1582.08 1710.9 1585.98 1713.3 1587.48C1715.6 1589.08 1719.1 1590.88 1721 1591.58C1722.9 1592.28 1727.2 1593.18 1730.5 1593.68C1734.2 1594.28 1739.3 1594.18 1744 1593.58C1748.1 1592.98 1756 1591.08 1761.5 1589.28C1767 1587.38 1776.4 1583.58 1782.5 1580.78C1788.5 1577.88 1797.1 1573.18 1801.5 1570.18C1805.9 1567.28 1810.7 1563.58 1812.1 1561.98C1814 1559.98 1814.9 1557.58 1815.4 1553.68C1815.7 1550.68 1816.9 1546.78 1817.9 1545.18C1818.9 1543.48 1821.7 1541.18 1824.1 1539.98C1826.5 1538.68 1830.5 1537.48 1833 1537.08C1835.8 1536.68 1839 1536.88 1841.5 1537.78C1843.7 1538.48 1847 1540.48 1848.9 1542.08C1850.7 1543.78 1852.9 1546.48 1853.8 1548.18C1854.6 1549.78 1855.9 1555.18 1856.6 1560.18C1857.4 1565.08 1858 1572.58 1858 1576.68C1858 1580.78 1857.5 1586.88 1856.9 1590.18C1856.3 1593.48 1854.3 1599.08 1852.5 1602.68C1850.7 1606.28 1846.3 1613.48 1842.7 1618.68C1839.1 1623.88 1833.1 1631.18 1829.4 1634.78C1825.6 1638.38 1819.1 1643.58 1815 1646.38C1810.9 1649.18 1802.3 1654.18 1796 1657.48C1789.7 1660.88 1780.4 1664.88 1775.5 1666.58C1770.5 1668.18 1763.6 1670.08 1760 1670.78C1756.4 1671.38 1753.1 1672.38 1752.5 1672.78C1752 1673.28 1744.7 1673.68 1736.3 1673.68C1727.9 1673.68 1719.1 1673.28 1716.8 1672.68C1714.4 1672.18 1707.1 1671.08 1700.5 1670.18C1693.9 1669.28 1681.8 1666.78 1673.5 1664.68C1665.3 1662.58 1652.6 1658.78 1645.5 1656.18C1638.3 1653.58 1629.1 1649.58 1625 1647.38C1620.9 1645.18 1615 1641.78 1612 1639.88C1609 1637.98 1601.3 1632.48 1595 1627.68C1588.7 1622.78 1578.5 1614.58 1572.5 1609.38C1566.4 1604.18 1556.7 1594.58 1550.8 1588.08C1544.9 1581.58 1538.3 1573.68 1536 1570.68C1533.7 1567.68 1529.3 1561.08 1526.3 1556.18C1523.2 1551.18 1519.3 1544.28 1517.7 1540.68C1516 1537.08 1513.2 1529.88 1511.4 1524.68C1509.5 1519.48 1507.7 1515.08 1507.3 1514.88C1506.8 1514.78 1504 1518.08 1501 1522.28C1498 1526.48 1492.6 1532.68 1489 1535.98C1485.4 1539.18 1477.3 1545.78 1471 1550.58C1464.7 1555.38 1454.3 1562.68 1448 1566.78C1441.7 1570.98 1431.1 1577.38 1424.5 1581.18C1417.9 1584.98 1404.8 1591.98 1395.5 1596.68C1381.3 1603.98 1374.4 1606.68 1353.5 1613.48C1339.8 1617.98 1321.5 1623.58 1313 1626.08C1304.5 1628.48 1287.8 1632.38 1276 1634.58C1264.2 1636.88 1249.8 1639.28 1244 1640.08C1238.2 1640.88 1220.9 1642.88 1205.5 1644.58C1190.1 1646.18 1172.3 1648.08 1166 1648.68C1159.7 1649.28 1146.6 1649.78 1137 1649.88C1127.4 1649.88 1102.6 1649.88 1082 1649.78C1061.4 1649.78 1035 1650.08 1023.5 1650.68C1011.9 1651.18 987.9 1651.78 970 1651.98C952.1 1652.18 928 1651.98 916.5 1651.58C904.9 1651.18 886 1650.08 874.5 1649.18C862.9 1648.38 847.2 1646.68 839.5 1645.58C831.8 1644.48 816.4 1642.08 805.2 1640.18C794.1 1638.28 776.6 1634.88 766.2 1632.58C755.9 1630.38 739.4 1626.58 729.5 1624.08C719.6 1621.58 706.1 1617.98 699.5 1616.08C692.9 1614.08 680.3 1609.88 671.5 1606.58C662.7 1603.38 645.8 1595.88 634 1589.88C622.2 1583.98 607.8 1576.28 602.2 1572.68C596.5 1569.08 586.4 1562.08 579.7 1557.08C573 1551.98 562.5 1543.48 556.5 1537.98C550.4 1532.58 541.1 1523.18 535.6 1517.18C530.2 1511.08 522.5 1501.88 518.6 1496.68C514.6 1491.48 508.9 1483.38 505.8 1478.68C502.8 1473.98 497.6 1465.18 494.3 1459.18C491 1453.08 487 1445.48 485.5 1442.18C484 1438.88 481.6 1433.68 480.2 1430.68C478.9 1427.68 476.4 1421.38 474.9 1416.68C473.3 1411.98 471.1 1404.58 470.1 1400.18C469 1395.78 467.4 1387.08 466.6 1380.98C465.7 1374.78 465 1367.78 465 1361.18L456.8 1360.38C452.2 1359.88 443.1 1358.68 436.5 1357.68C429.9 1356.58 420.4 1354.58 415.5 1353.28C410.5 1351.98 401.8 1348.98 396 1346.68C390.2 1344.38 377.8 1338.78 368.5 1334.18C359.1 1329.48 345.6 1322.28 338.5 1317.98C331.3 1313.68 320.1 1306.38 313.5 1301.68C307 1296.98 294.9 1287.48 286.6 1280.58C278.3 1273.68 264.5 1261.08 256 1252.58C247.5 1244.08 235.3 1231.08 229 1223.68C222.6 1216.28 213.4 1205.18 208.5 1199.18C203.7 1193.08 193.3 1179.58 185.5 1169.18C177.7 1158.68 168.1 1145.48 164 1139.68C160 1133.88 154 1124.68 150.7 1119.18C147.4 1113.68 142.1 1103.78 138.9 1097.18C135.7 1090.58 131.3 1079.78 129 1073.18C126.8 1066.58 124.3 1057.38 123.4 1052.68C122.6 1047.98 122 1040.58 122 1036.18C122 1031.78 122.7 1024.98 123.5 1021.18C124.3 1017.28 125.7 1012.18 126.6 1009.68C127.5 1007.18 130.3 1002.08 132.8 998.177C135.4 994.377 140.4 988.777 144.1 985.677C147.7 982.677 155.6 977.577 161.6 974.477C167.6 971.377 177.2 966.977 183 964.677C188.8 962.377 201.4 957.877 211 954.677C220.6 951.477 233.7 947.277 240 945.277C246.3 943.377 256.7 940.277 263 938.277C269.3 936.377 286.2 931.477 300.5 927.377C314.8 923.177 337.6 916.877 351.3 913.277C364.9 909.677 380.4 905.277 385.8 903.577C391.1 901.877 401.8 897.977 409.5 894.977C417.2 891.977 429.1 886.677 436 883.277C442.9 879.777 452.8 874.677 458 871.677C463.2 868.777 472.7 863.177 479 859.077C485.3 855.077 496.8 847.277 504.5 841.777C512.2 836.177 524.3 827.477 531.5 822.477C538.6 817.477 547.4 810.977 551 808.177C554.6 805.277 559.1 801.177 561 799.077C563 796.977 566.2 792.277 568.2 788.677C570.3 785.077 574.7 775.877 578.1 768.177C581.5 760.477 587.2 746.077 590.7 736.177C594.3 726.277 598.7 713.477 600.6 707.677C602.5 701.877 604.7 694.477 605.5 691.177C606.2 687.877 607.6 680.477 608.4 674.677C609.3 668.877 610.4 659.177 611 653.177C611.6 647.077 612.7 636.977 613.6 630.677C614.4 624.377 616 615.077 617.2 610.177C618.3 605.177 620.6 598.277 622.4 594.777C624.3 590.877 627.2 586.877 630 584.477C632.5 582.277 636.3 580.077 638.5 579.477C640.7 578.977 645.4 578.677 649 578.877C653.3 579.177 657.3 580.277 660.8 582.077C663.6 583.477 670.2 588.177 675.3 592.377C680.3 596.577 693.3 608.977 704 619.977C714.7 630.977 730.3 646.777 738.6 655.077C746.9 663.377 765.5 681.677 779.9 695.677C794.4 709.677 811.4 726.077 817.8 731.977C824.3 737.977 835.1 747.477 842 753.077C848.9 758.777 861.3 768.477 869.7 774.777C878 781.077 891.7 790.277 900.2 795.377C908.6 800.477 924.8 809.177 936.3 814.677C947.7 820.177 957.2 824.677 957.5 824.677C957.8 824.677 964.9 827.777 973.3 831.577C981.6 835.377 992.9 840.277 998.3 842.577C1003.6 844.877 1008.2 846.377 1008.5 845.877C1008.7 845.477 1007.4 842.777 1005.5 839.877C1003.6 837.077 1000.2 831.077 998 826.677C995.8 822.277 992.2 814.077 989.9 808.377C987.7 802.777 984.3 792.977 982.5 786.677C980.7 780.377 978.1 769.277 976.7 762.177C975.3 754.977 973.6 743.277 972.9 736.177C972.2 728.477 971.9 716.877 972.3 707.677C972.6 699.177 973.8 685.877 975 678.177C976.2 670.477 978.7 658.277 980.5 651.177C982.3 643.977 985.9 632.277 988.5 625.177C991.1 617.977 996.2 605.877 999.9 598.177C1003.6 590.477 1009.9 578.577 1013.9 571.677C1018 564.777 1024.7 554.177 1028.8 548.177C1032.9 542.077 1039.2 533.377 1042.9 528.677C1046.5 523.977 1054 514.977 1059.6 508.677C1065.1 502.377 1075.9 490.977 1083.6 483.277C1091.2 475.677 1103.3 464.377 1110.5 458.177C1117.6 451.977 1130.3 441.877 1138.5 435.677C1146.8 429.477 1159.1 420.677 1166 416.177C1172.9 411.677 1183.4 405.077 1189.5 401.677C1195.5 398.177 1207.5 391.877 1216 387.677C1224.5 383.377 1236.9 377.677 1243.5 374.977C1250.1 372.177 1260 368.277 1265.5 366.377C1271 364.377 1279.1 361.577 1283.5 360.277C1287.9 358.877 1296.9 356.377 1303.5 354.677C1310.1 352.977 1322 350.477 1330 349.077C1338 347.777 1348.3 346.377 1353 345.977C1357.7 345.677 1362.4 344.977 1363.5 344.577C1364.6 344.077 1375.2 343.877 1387 344.077ZM604.4 809.677C600.5 814.377 591.5 823.777 584.4 830.577C577.3 837.477 566.5 846.677 560.5 851.177C554.4 855.577 541.4 865.177 531.5 872.377C521.6 879.577 507.4 889.277 500 893.877C492.6 898.577 481.5 905.077 475.5 908.377C469.4 911.777 458.9 917.277 452 920.677C445.1 924.177 432.1 929.877 423 933.377C413.9 936.877 400.6 941.577 393.5 943.777C386.3 945.977 375.3 949.877 369 952.377C362.7 954.877 354.3 958.477 350.5 960.377C346.6 962.377 339.7 966.477 335 969.577C330.4 972.677 322.5 979.277 317.5 984.277C312.6 989.277 306 996.877 303 1001.28C300 1005.58 294.9 1014.78 291.7 1021.68C288.5 1028.58 284.1 1038.48 281.9 1043.68C279.8 1048.88 277 1057.88 275.6 1063.68C274.2 1069.48 272.6 1079.58 272 1086.18C271.5 1092.78 271 1104.68 271 1112.68C271 1120.68 271.7 1131.68 272.5 1137.18C273.3 1142.68 274.7 1150.08 275.5 1153.68C276.4 1157.28 278.7 1165.08 280.7 1171.18C282.6 1177.18 285.7 1185.28 287.5 1189.18C289.2 1192.98 293.2 1200.18 296.3 1205.18C299.3 1210.08 303.7 1216.68 306 1219.68C308.3 1222.68 313.7 1229.18 318 1234.18C322.3 1239.08 330.2 1246.98 335.5 1251.68C340.9 1256.38 349.1 1263.08 353.9 1266.58C358.6 1270.08 367 1275.88 372.5 1279.48C378 1283.08 390.1 1290.38 399.5 1295.68C408.8 1301.08 424 1309.28 433.3 1314.08C448.6 1321.98 450.5 1322.68 455.8 1322.68C459.1 1322.68 462.1 1322.18 462.8 1321.38C463.7 1320.58 464 1315.48 464 1304.68C464.1 1292.88 464.6 1285.88 466.5 1275.18L468.9 1261.18C463.3 1249.58 460 1241.18 457.8 1235.18C455.6 1229.08 452.7 1219.68 451.3 1214.18C449.9 1208.68 447.9 1199.18 446.9 1193.18C445.9 1187.08 444.5 1174.48 443.8 1165.18C443 1152.28 443 1144.48 443.8 1133.18C444.5 1124.88 445.9 1113.48 446.9 1107.68C448 1101.88 449.8 1093.38 451 1088.68C452.2 1083.98 455 1074.78 457.1 1068.18C459.3 1061.58 463.6 1050.98 466.6 1044.68C469.7 1038.38 474.5 1029.38 477.3 1024.68C480.1 1019.98 486.2 1010.98 490.9 1004.68C495.5 998.377 502.1 989.777 505.5 985.677C508.9 981.577 514.6 975.977 518.1 973.277C521.6 970.577 526.5 967.477 529 966.377C532.3 964.877 535.7 964.277 542 964.277C549 964.177 551.3 964.577 554.8 966.477C557.1 967.677 560.1 970.377 561.4 972.377C562.7 974.477 564.1 977.477 564.5 979.177C564.8 980.777 564.7 984.077 564.1 986.377C563.5 988.777 561.5 992.277 559.8 994.277C557.6 996.677 554.833 998.343 551.5 999.277C548.8 1000.08 545.5 1000.68 544.3 1000.68C542.8 1000.68 540.4 1002.48 537.4 1005.88C534.8 1008.78 528.2 1017.88 522.8 1026.18C517.3 1034.38 510.4 1046.08 507.5 1052.18C504.5 1058.18 500.6 1067.48 498.6 1072.68C496.7 1077.88 494 1086.18 492.5 1091.18C491.1 1096.08 489.1 1104.48 488 1109.68C486.9 1114.88 485.5 1124.08 484.9 1130.18C484.2 1136.78 484 1147.78 484.4 1157.68C484.7 1166.78 485.7 1178.18 486.6 1183.18C487.5 1188.18 488.5 1191.78 489 1191.18C489.4 1190.58 492.1 1184.98 494.9 1178.68C497.7 1172.38 504.1 1159.48 509.2 1150.18C514.2 1140.78 521.5 1127.78 525.3 1121.18C529.2 1114.58 536.4 1102.88 541.3 1095.18C546.3 1087.48 553.6 1076.78 557.4 1071.28C561.3 1065.88 567.6 1057.58 571.4 1052.78C575.2 1048.08 584.2 1037.68 591.4 1029.68C598.6 1021.68 610.6 1009.08 618 1001.58C625.4 994.077 635.5 984.477 640.5 980.177C645.4 975.877 656.5 967.177 665 960.777C673.5 954.377 687 944.877 695 939.577C703 934.277 714.2 927.077 720 923.677C725.8 920.177 736.6 914.277 744 910.477C751.4 906.677 762.2 901.777 768 899.577C773.8 897.377 782.5 894.377 787.5 893.077C793 891.577 799.2 890.677 803.5 890.677C808.1 890.677 811.9 891.377 814.5 892.477C816.7 893.477 820.3 895.877 822.4 897.777C824.6 899.677 826.9 902.677 827.7 904.377C828.4 906.177 829 909.677 829 912.177C829 914.677 828.4 917.877 827.6 919.377C826.9 920.977 824.9 923.377 823.1 924.877C821.4 926.477 818.1 928.177 815.8 928.877C812.4 929.777 810.4 929.677 806.5 928.677C801.8 927.477 801 927.577 793.5 930.177C789.1 931.677 781.7 934.777 777 936.977C772.3 939.177 764.2 943.477 759 946.477C753.8 949.377 739.4 958.577 727 966.877C714.6 975.177 698.4 986.477 691 992.077C683.6 997.677 673 1006.08 667.5 1010.78C662 1015.58 651.8 1025.28 644.9 1032.28C638 1039.38 628.8 1048.98 624.4 1053.68C620.1 1058.38 613.1 1066.28 608.9 1071.18C604.8 1076.18 598.7 1083.78 595.4 1088.18C592 1092.58 586.2 1100.88 582.3 1106.68C578.4 1112.48 572.2 1122.08 568.5 1128.18C564.7 1134.18 557.5 1146.58 552.5 1155.68C547.4 1164.78 540.8 1177.08 537.7 1183.18C534.7 1189.18 531.1 1196.88 529.7 1200.18C528.3 1203.48 525.9 1210.68 524.2 1216.18C522.6 1221.68 520 1230.48 518.6 1235.68C516 1244.98 516 1245.18 517.9 1247.18C518.9 1248.28 520.6 1250.78 521.5 1252.68C522.5 1254.58 523.5 1259.08 523.8 1262.68C524.4 1269.18 524.4 1269.18 531 1275.48C534.6 1278.98 541.8 1285.08 547 1289.08C552.2 1292.98 560.5 1298.78 565.5 1301.78C570.4 1304.88 578.1 1309.18 582.5 1311.48C586.9 1313.68 594.3 1317.08 599 1318.98C603.7 1320.88 612.2 1324.08 618 1325.98C623.8 1327.98 632.1 1330.48 636.5 1331.58C640.9 1332.78 647.9 1334.38 652 1335.18C656.1 1335.98 664.4 1337.18 670.5 1337.78C677.1 1338.48 688.5 1338.68 699 1338.38C711 1337.98 719.5 1337.18 726 1335.68C731.2 1334.58 738.4 1332.68 742 1331.58C745.6 1330.38 753 1327.68 758.5 1325.48C764 1323.28 772.5 1319.48 777.5 1316.98C782.4 1314.48 789.6 1310.28 793.5 1307.68C797.3 1305.08 804.8 1299.18 810 1294.48C815.2 1289.78 822.7 1282.68 826.5 1278.58C830.4 1274.48 834.9 1269.18 836.7 1266.68C838.4 1264.18 841.6 1258.58 843.8 1254.18C846 1249.78 848.9 1243.28 850.3 1239.68C851.7 1236.08 853.8 1229.78 854.9 1225.68C856 1221.58 857.8 1212.78 859 1206.18C860.4 1197.48 860.9 1190.68 860.7 1181.18C860.5 1168.68 860.6 1167.98 863.3 1162.88C864.8 1160.08 867.9 1155.78 870.3 1153.48C872.9 1150.88 877.9 1147.68 883.5 1145.08C888.4 1142.78 896.5 1139.58 901.5 1137.88C906.4 1136.18 915.7 1133.78 922 1132.58C931.5 1130.68 936.7 1130.28 952 1130.18C966.3 1130.18 972.4 1130.58 979 1131.98C983.7 1133.08 988.7 1134.48 990.3 1135.28C991.8 1136.08 993 1136.38 993 1135.88C993 1135.48 993.7 1129.08 994.5 1121.68C995.3 1114.28 996.8 1103.88 997.9 1098.68C999 1093.48 1001.2 1084.68 1002.8 1079.18C1004.4 1073.68 1007.4 1064.88 1009.5 1059.68C1011.6 1054.48 1015.7 1045.48 1018.6 1039.68C1021.5 1033.88 1027.3 1023.98 1031.5 1017.68C1035.8 1011.38 1042.4 1002.38 1046.3 997.677C1050.1 992.977 1054.4 988.077 1055.9 986.877C1057.3 985.577 1060.3 983.677 1062.5 982.577C1064.7 981.577 1068.2 980.677 1070.3 980.677C1072.3 980.677 1075.7 981.377 1077.8 982.277C1079.8 983.077 1082.8 984.977 1084.4 986.477C1086 987.977 1088.1 990.977 1089.1 993.177C1090.1 995.377 1091 998.477 1091 1000.18C1091 1001.78 1090.3 1005.18 1089.5 1007.68C1088.6 1010.58 1085.3 1015.18 1080.4 1020.68C1076.3 1025.38 1069.7 1033.88 1065.8 1039.68C1061.9 1045.48 1056.4 1054.88 1053.5 1060.68C1050.6 1066.48 1046.6 1075.68 1044.7 1081.18C1042.8 1086.68 1040.1 1096.38 1038.7 1102.68C1037.3 1108.98 1035.6 1119.08 1034.9 1125.18C1034.2 1131.88 1034 1143.08 1034.3 1153.68C1034.7 1166.78 1035.5 1174.58 1037.5 1184.68C1039 1192.08 1042.1 1204.18 1044.6 1211.38C1047 1218.68 1051.4 1229.48 1054.3 1235.38C1057.3 1241.38 1062 1249.98 1065 1254.68C1067.9 1259.38 1072.8 1266.58 1075.8 1270.68C1078.9 1274.78 1087.1 1283.78 1094 1290.78C1100.9 1297.68 1110.4 1306.18 1115.2 1309.78C1119.9 1313.28 1128 1318.68 1133.2 1321.68C1138.3 1324.78 1147 1329.38 1152.5 1331.88C1158 1334.38 1167 1337.88 1172.5 1339.58C1178 1341.28 1187 1343.58 1192.5 1344.68C1198 1345.78 1208.3 1347.18 1215.5 1347.78C1224.7 1348.48 1232.3 1348.48 1241.5 1347.68C1248.6 1347.08 1258.8 1345.68 1264 1344.58C1269.2 1343.48 1276 1341.88 1279 1340.98C1282 1340.08 1288.3 1337.88 1293 1335.98C1297.7 1334.08 1305.1 1330.68 1309.5 1328.48C1313.9 1326.28 1320.9 1322.18 1325 1319.38C1329.1 1316.58 1335.6 1311.78 1339.5 1308.58C1343.3 1305.48 1350.1 1299.18 1354.6 1294.58C1359 1289.98 1365.3 1282.58 1368.6 1278.18C1372 1273.78 1376.8 1266.58 1379.5 1262.18C1382.1 1257.78 1386.1 1250.38 1388.2 1245.68C1390.4 1240.98 1393.4 1233.58 1394.9 1229.18C1396.5 1224.78 1398.8 1217.38 1400.1 1212.68C1401.4 1207.98 1403.7 1202.48 1405.2 1200.38C1406.8 1198.38 1409.8 1195.78 1412 1194.68C1414.4 1193.48 1418 1192.68 1421 1192.68C1423.8 1192.68 1427.2 1193.18 1428.8 1193.78C1430.3 1194.28 1432.8 1195.98 1434.4 1197.48C1436 1198.98 1438.1 1201.98 1439.1 1204.18C1440.1 1206.38 1441 1210.18 1441 1212.68C1441 1215.18 1439.7 1221.88 1438.1 1227.68C1436.4 1233.48 1432.8 1243.98 1430 1251.18C1427.2 1258.28 1422 1269.38 1418.5 1275.68C1415 1281.98 1408.8 1291.88 1404.7 1297.68C1400.6 1303.48 1393.2 1312.68 1388.3 1318.18C1383.3 1323.68 1375.5 1331.28 1371 1335.18C1366.5 1338.98 1360 1344.28 1356.6 1346.78C1353.3 1349.38 1346.4 1353.88 1341.5 1356.88C1336.5 1359.98 1328.4 1364.48 1323.5 1366.88C1318.5 1369.38 1309.5 1373.28 1303.5 1375.48C1297.4 1377.68 1288 1380.68 1282.5 1382.08C1277 1383.48 1268.2 1385.38 1263 1386.38C1255.6 1387.78 1248 1388.18 1228.5 1388.08C1208.8 1388.08 1201.4 1387.78 1193.5 1386.28C1188 1385.28 1179.2 1383.48 1174 1382.18C1168.8 1380.88 1159.8 1378.18 1154 1376.08C1148.2 1374.08 1138.1 1369.88 1131.5 1366.78C1124.9 1363.68 1115.7 1358.78 1111 1355.98C1106.3 1353.18 1097.5 1347.18 1091.5 1342.58C1085.4 1338.08 1076.7 1330.98 1072.1 1326.78C1067.5 1322.58 1059.2 1313.98 1053.8 1307.68C1048.3 1301.38 1040.4 1290.98 1036.1 1284.68C1031.8 1278.38 1026 1268.88 1023.2 1263.68C1020.4 1258.48 1016.1 1249.68 1013.7 1244.18C1011.2 1238.68 1007.6 1229.18 1005.7 1223.18C1003.7 1217.08 1001.2 1208.58 1000.1 1204.18C998.9 1199.78 997.1 1190.78 996 1184.18C994.9 1177.58 993.9 1172.08 993.7 1171.88C993.6 1171.78 992.3 1172.08 990.8 1172.68C989.2 1173.18 985.9 1173.68 983.3 1173.68C980.6 1173.68 976 1172.98 973 1172.08C969.5 1171.08 961.5 1170.28 951 1169.98C938.5 1169.58 932.3 1169.88 925.5 1171.08C920.5 1171.88 913.3 1173.58 909.5 1174.68L902.5 1176.78C901.5 1195.68 900 1207.48 898.6 1215.18C897.2 1222.88 895.2 1232.58 894.1 1236.68C893.1 1240.78 890.5 1248.48 888.5 1253.68C886.4 1258.88 882.2 1268.08 879.1 1274.18C876.1 1280.18 870.9 1288.68 867.8 1292.88C864.6 1297.18 857.1 1305.48 851.2 1311.38C845.2 1317.38 836.6 1325.38 831.9 1329.28C827.3 1333.28 819.7 1338.98 815 1342.08C810.3 1345.28 801.1 1350.58 794.5 1353.88C787.9 1357.28 776.2 1362.38 768.5 1365.18C760.8 1368.08 749.8 1371.58 744 1373.08C738.2 1374.58 729.4 1376.38 724.5 1377.28C719.5 1378.08 708.5 1379.08 700 1379.38C690.7 1379.68 679.1 1379.48 671 1378.78C663.6 1378.08 652.8 1376.58 647 1375.58C641.2 1374.48 632.2 1372.48 627 1371.18C621.8 1369.78 612.3 1366.98 606 1364.88C599.7 1362.68 589.8 1359.08 584 1356.78C578.2 1354.48 568.3 1349.88 562 1346.48C555.7 1343.18 546.4 1337.88 541.5 1334.78C536.5 1331.68 528.4 1326.08 523.5 1322.38C518.5 1318.68 514.2 1315.68 513.8 1315.68C513.3 1315.68 512.7 1316.48 512.4 1317.38C512.1 1318.38 511.2 1322.58 510.4 1326.68C509.7 1330.78 508.3 1339.38 507.5 1345.68C506.7 1351.98 506 1359.98 506 1363.38C506 1366.88 506.5 1372.98 507 1376.88C507.6 1380.88 508.8 1387.28 509.7 1391.18C510.6 1394.98 513.1 1402.88 515.2 1408.68C517.4 1414.48 522.2 1424.98 525.9 1432.18C529.6 1439.28 535.7 1449.88 539.5 1455.68C543.2 1461.48 549 1469.78 552.3 1474.18C555.7 1478.58 565.8 1489.68 574.9 1498.78C585.8 1509.58 595.8 1518.58 604 1524.58C610.9 1529.68 621.3 1536.78 627.3 1540.28C633.2 1543.78 644.2 1549.78 651.8 1553.58C661.6 1558.48 672.8 1562.88 691.5 1569.08C705.8 1573.78 725.4 1579.68 735 1582.18C744.6 1584.58 757.2 1587.48 763 1588.58C768.8 1589.68 779.6 1591.48 787 1592.58C794.4 1593.78 808.6 1595.58 818.5 1596.68C828.4 1597.78 849.5 1599.78 865.5 1601.18C881.4 1602.48 910.5 1604.58 930 1605.68C949.5 1606.78 972.5 1608.18 981 1608.58C990.1 1609.18 1028.5 1609.18 1073.5 1608.58C1115.8 1608.08 1157.5 1607.28 1166 1606.68C1174.5 1606.08 1193.4 1604.38 1208 1602.68C1222.6 1601.08 1239.4 1598.98 1245.5 1598.08C1251.5 1597.18 1256.7 1596.38 1257 1596.18C1257.3 1595.98 1263.1 1594.88 1270 1593.78C1276.9 1592.58 1286.8 1590.48 1292 1589.08C1297.2 1587.68 1307.3 1584.78 1314.5 1582.58C1321.6 1580.38 1334.5 1576.28 1343 1573.48C1351.5 1570.78 1365.3 1565.58 1373.5 1562.08C1381.8 1558.48 1393.9 1552.98 1400.5 1549.68C1407.1 1546.48 1417.2 1540.88 1423 1537.28C1428.8 1533.78 1438.2 1526.98 1444 1522.18C1449.8 1517.48 1457.5 1510.18 1461.3 1505.88C1465 1501.68 1470.4 1494.58 1473.4 1490.18C1476.4 1485.78 1482.3 1475.68 1486.5 1467.68C1490.8 1459.68 1496.1 1449.68 1498.2 1445.38C1500.3 1441.18 1502 1437.08 1502 1436.38C1502 1435.78 1503.4 1432.28 1505.1 1428.68C1506.8 1425.08 1511.7 1413.58 1516 1403.18C1520.3 1392.68 1525.4 1378.78 1527.3 1372.18C1529.2 1365.58 1531.9 1354.98 1533.3 1348.68C1534.7 1342.38 1536.7 1331.98 1537.7 1325.68C1539.2 1316.08 1539.4 1307.78 1539.4 1276.18V1238.18C1533.5 1205.58 1530.3 1191.68 1528.5 1186.18C1526.7 1180.68 1522.5 1169.68 1519.2 1161.68C1516 1153.68 1510.9 1142.48 1508.1 1136.68C1505.2 1130.88 1496.4 1116.38 1488.4 1104.38C1476.9 1086.98 1472.1 1080.68 1464.3 1072.88C1456.8 1065.38 1450 1059.88 1435.5 1049.98C1425 1042.78 1412.9 1034.68 1408.5 1031.98C1404.1 1029.18 1388.6 1020.98 1374 1013.58C1359.4 1006.18 1341.2 997.377 1333.5 993.977C1325.8 990.577 1314.1 985.677 1307.5 983.177C1300.9 980.577 1288.3 975.677 1279.5 972.177C1270.7 968.777 1255.8 963.477 1246.5 960.377C1237.1 957.377 1223.6 952.877 1216.5 950.377C1209.3 947.877 1195.6 943.777 1186 941.277C1176.4 938.877 1163.5 935.477 1157.5 933.877C1151.4 932.177 1138.8 929.277 1129.5 927.277C1120.1 925.377 1106.4 922.577 1099 921.177C1091.6 919.777 1075.1 916.877 1062.5 914.677C1049.8 912.577 1035 910.277 1029.5 909.577C1021.8 908.677 1018.7 908.677 1016 909.577C1014.1 910.177 1011.4 910.677 1010 910.677C1008.6 910.677 1005 909.377 1002 907.877C997.2 905.277 994.2 904.677 977 902.777C966.3 901.477 943.8 898.577 927 896.177C910.2 893.777 892 891.077 886.5 890.177C881 889.277 865.5 886.277 852 883.577C838.5 880.777 819.4 876.477 809.5 874.077C799.6 871.577 785.2 867.777 777.5 865.477C769.8 863.277 757 859.077 749 856.177C741 853.277 728 848.377 720 845.277C712 842.177 702.1 838.177 698 836.477C693.9 834.677 687.6 831.777 684 829.877C680.4 827.977 674.8 824.877 671.5 822.877C668.2 820.877 658.8 814.777 650.5 809.377C642.3 803.877 632.5 796.977 628.8 794.077C625 791.077 621.4 788.677 620.6 788.677C619.9 788.677 617.5 791.477 615.4 794.877C613.3 798.377 608.3 804.977 604.4 809.677ZM1610.5 1109.78C1607.8 1110.98 1602.6 1113.88 1599 1116.18C1595.4 1118.48 1590.1 1122.58 1587.1 1125.28C1584.2 1127.98 1579.7 1132.88 1577.2 1136.18C1574.7 1139.48 1571.2 1145.58 1569.3 1149.68C1567.4 1153.78 1565.6 1158.98 1565.3 1161.18C1564.9 1163.98 1565.7 1168.08 1567.9 1175.18C1569.6 1180.68 1571.7 1188.78 1572.5 1193.18C1573.4 1197.58 1575.2 1207.48 1576.6 1215.18C1578.7 1226.68 1579.3 1234.18 1580 1257.68C1580.5 1274.08 1580.5 1293.98 1580 1304.68C1579.5 1314.88 1578.2 1329.28 1577 1336.68C1575.8 1344.08 1574 1353.88 1572.9 1358.38C1571.9 1362.98 1571 1367.58 1571 1368.68C1571 1369.78 1571.6 1370.68 1572.3 1370.68C1572.9 1370.68 1577.1 1369.68 1581.5 1368.48C1587.1 1366.98 1591.7 1364.78 1597 1361.28C1601.1 1358.48 1608.6 1352.18 1613.6 1347.18C1619.6 1341.38 1625.2 1334.48 1629.6 1327.68C1633.4 1321.88 1639.3 1311.58 1642.7 1304.68C1646.2 1297.78 1650.8 1287.68 1653 1282.18C1655.1 1276.68 1657.8 1268.78 1659 1264.68C1660.1 1260.58 1661.7 1253.98 1662.5 1250.18C1663.3 1246.28 1664.4 1239.58 1665 1235.18C1665.6 1230.78 1666.4 1214.58 1666.7 1199.18C1667.1 1181.18 1666.8 1166.38 1666.1 1157.68C1665.4 1150.28 1664.2 1140.78 1663.4 1136.68C1662.5 1132.58 1660.6 1126.48 1659.2 1123.28C1657.4 1119.38 1654.8 1115.88 1651.5 1112.98C1648 1109.88 1644.6 1107.98 1640 1106.58C1636.4 1105.48 1631.9 1104.68 1630 1104.78C1628.1 1104.78 1624 1105.48 1621 1106.18C1618 1106.98 1613.3 1108.58 1610.5 1109.78ZM1245.5 1069.68C1248.3 1069.68 1252.4 1070.58 1254.8 1071.68C1257.1 1072.78 1260.7 1075.38 1262.8 1077.48C1264.8 1079.58 1267.5 1083.38 1268.8 1085.98C1270 1088.58 1272 1093.48 1273.1 1096.88C1275 1102.68 1275.2 1104.68 1274.7 1121.18C1274.4 1131.08 1273.4 1143.48 1272.5 1148.68C1271.6 1153.88 1269.7 1161.78 1268.2 1166.18C1266.7 1170.58 1264.2 1176.18 1262.5 1178.68C1260.8 1181.18 1257.5 1184.28 1255 1185.68C1251.5 1187.58 1249.1 1188.18 1244 1188.18C1238.9 1188.18 1236.3 1187.58 1232.5 1185.68C1228.9 1183.78 1226.7 1181.68 1224.5 1178.18C1222.8 1175.38 1220.9 1170.68 1220.2 1167.68C1219.5 1164.68 1218.3 1157.18 1217.5 1151.18C1216.7 1145.08 1216 1134.58 1216.1 1127.68C1216.1 1119.98 1216.8 1111.08 1217.9 1104.68C1218.9 1098.88 1220.7 1091.68 1221.8 1088.68C1223 1085.68 1225.2 1081.28 1226.7 1079.08C1228.63 1076.34 1231.4 1074.08 1235 1072.28C1238.8 1070.48 1242.1 1069.68 1245.5 1069.68ZM723.5 1074.78C726.3 1074.68 730.1 1075.18 732 1075.78C733.9 1076.48 737 1078.38 738.8 1080.08C740.7 1081.78 743.5 1085.78 745.1 1088.88C747.1 1092.88 748.5 1097.78 749.5 1104.88C750.3 1110.58 751 1120.98 751 1128.18C751 1135.28 750.5 1145.18 749.9 1150.18C749.3 1155.08 747.9 1162.58 746.9 1166.68C745.8 1170.78 743.5 1176.68 741.6 1179.68C739.8 1182.68 736.3 1186.58 733.9 1188.28C731.5 1189.98 727.5 1191.68 725 1192.08C722.4 1192.58 718.6 1192.38 716 1191.78C713.5 1191.18 709.6 1189.38 707.3 1187.68C704.9 1186.08 701.9 1182.78 700.5 1180.38C699.2 1178.08 697.1 1172.58 696 1168.18C694.9 1163.78 693.7 1155.18 693.3 1149.18C693 1143.08 693.3 1132.78 693.9 1126.18C694.5 1119.58 696.1 1109.48 697.4 1103.68C698.7 1097.88 700.9 1090.88 702.3 1088.18C703.7 1085.38 706.1 1081.98 707.7 1080.48C709.2 1078.98 712.3 1077.08 714.5 1076.28C716.7 1075.48 720.8 1074.78 723.5 1074.78ZM1621 1168.78C1622.4 1168.68 1625.5 1169.68 1627.9 1170.88C1631 1172.48 1633 1174.48 1634.7 1177.68C1636 1180.18 1637 1183.38 1637 1184.88C1637 1186.48 1635.9 1190.08 1634.6 1192.88C1633.2 1195.88 1631.6 1202.28 1630.9 1207.68C1630.1 1213.28 1629.6 1225.88 1629.6 1238.18C1629.7 1253.48 1630.1 1261.78 1631.4 1268.68C1632.8 1276.08 1632.9 1279.08 1632.1 1282.38C1631.5 1284.78 1629.5 1288.18 1627.8 1290.08C1625.8 1292.18 1622.7 1293.88 1620 1294.68C1617.5 1295.28 1614.1 1295.58 1612.5 1295.28C1610.8 1294.98 1607.9 1293.68 1606 1292.38C1604.1 1291.18 1601.5 1288.28 1600.3 1286.18C1599.1 1283.98 1597.6 1279.88 1597 1277.18C1596.4 1274.38 1595.5 1266.78 1595 1260.18C1594.3 1252.28 1594.3 1243.28 1595 1233.68C1595.5 1225.68 1596.9 1213.58 1598.1 1206.68C1599.3 1199.78 1601.3 1190.68 1602.6 1186.38C1604.5 1180.48 1606 1177.68 1609.3 1174.28C1611.6 1171.88 1614.6 1169.68 1616 1169.38C1617.4 1169.18 1619.6 1168.88 1621 1168.78Z" stroke="white" stroke-width="94" mask="url(#path-2-outside-1_752_109)"/>
</svg>
