<svg width="30" height="30" viewBox="0 0 30 30" fill="none" xmlns="http://www.w3.org/2000/svg">
<path d="M8.67578 6.24979C8.67545 6.91283 8.41174 7.54858 7.94267 8.01719C7.47359 8.48579 6.83757 8.74887 6.17453 8.74854C5.51149 8.7482 4.87574 8.48449 4.40713 8.01542C3.93852 7.54634 3.67545 6.91033 3.67578 6.24729C3.67611 5.58424 3.93982 4.94849 4.4089 4.47988C4.87797 4.01128 5.51399 3.7482 6.17703 3.74854C6.84007 3.74887 7.47583 4.01258 7.94443 4.48165C8.41304 4.95073 8.67611 5.58674 8.67578 6.24979ZM8.75078 10.5998H3.75078V26.2498H8.75078V10.5998ZM16.6508 10.5998H11.6758V26.2498H16.6008V18.0373C16.6008 13.4623 22.5633 13.0373 22.5633 18.0373V26.2498H27.5008V16.3373C27.5008 8.62479 18.6758 8.91229 16.6008 12.6998L16.6508 10.5998Z" fill="#252525"/>
</svg>
