<svg width="30" height="30" viewBox="0 0 30 30" fill="none" xmlns="http://www.w3.org/2000/svg">
<path d="M5 25C4.3125 25 3.72375 24.755 3.23375 24.265C2.74375 23.775 2.49917 23.1867 2.5 22.5V7.5C2.5 6.8125 2.745 6.22375 3.235 5.73375C3.725 5.24375 4.31334 4.99917 5 5H25C25.6875 5 26.2763 5.245 26.7663 5.735C27.2563 6.225 27.5008 6.81334 27.5 7.5V22.5C27.5 23.1875 27.255 23.7763 26.765 24.2663C26.275 24.7563 25.6867 25.0008 25 25H5ZM25 10L15.6563 15.8438C15.5521 15.9063 15.4425 15.9533 15.3275 15.985C15.2125 16.0167 15.1033 16.0321 15 16.0313C14.8958 16.0313 14.7863 16.0158 14.6713 15.985C14.5563 15.9542 14.4471 15.9071 14.3438 15.8438L5 10V22.5H25V10ZM15 13.75L25 7.5H5L15 13.75ZM5 10.3125V8.46875V8.5V8.485V10.3125Z" fill="#252525"/>
</svg>
