<svg width="50" height="50" viewBox="0 0 50 50" fill="none" xmlns="http://www.w3.org/2000/svg">
<path d="M28.6125 45.45C34.0594 40.6562 43.75 30.8625 43.75 21.875C43.75 16.9022 41.7746 12.1331 38.2583 8.61675C34.7419 5.10044 29.9728 3.125 25 3.125C20.0272 3.125 15.2581 5.10044 11.7417 8.61675C8.22544 12.1331 6.25 16.9022 6.25 21.875C6.25 30.8625 15.9375 40.6562 21.3875 45.45C22.3816 46.3373 23.6675 46.8277 25 46.8277C26.3325 46.8277 27.6184 46.3373 28.6125 45.45ZM18.75 21.875C18.75 20.2174 19.4085 18.6277 20.5806 17.4556C21.7527 16.2835 23.3424 15.625 25 15.625C26.6576 15.625 28.2473 16.2835 29.4194 17.4556C30.5915 18.6277 31.25 20.2174 31.25 21.875C31.25 23.5326 30.5915 25.1223 29.4194 26.2944C28.2473 27.4665 26.6576 28.125 25 28.125C23.3424 28.125 21.7527 27.4665 20.5806 26.2944C19.4085 25.1223 18.75 23.5326 18.75 21.875Z" fill="#252525"/>
</svg>
