<svg width="50" height="50" viewBox="0 0 50 50" fill="none" xmlns="http://www.w3.org/2000/svg">
<path d="M25.0003 45.6105C13.4941 45.6105 4.16699 36.2834 4.16699 24.7772C4.16699 13.273 13.4941 3.94385 25.0003 3.94385C36.5066 3.94385 45.8337 13.273 45.8337 24.7772C45.8337 36.2834 36.5066 45.6105 25.0003 45.6105ZM25.0003 14.3605C24.4478 14.3605 23.9179 14.58 23.5272 14.9707C23.1365 15.3614 22.917 15.8913 22.917 16.4438V26.8605C22.917 27.4131 23.1365 27.943 23.5272 28.3337C23.9179 28.7244 24.4478 28.9438 25.0003 28.9438C25.5529 28.9438 26.0828 28.7244 26.4735 28.3337C26.8642 27.943 27.0837 27.4131 27.0837 26.8605V16.4438C27.0837 15.8913 26.8642 15.3614 26.4735 14.9707C26.0828 14.58 25.5529 14.3605 25.0003 14.3605ZM25.0003 35.1939C25.5529 35.1939 26.0828 34.9744 26.4735 34.5837C26.8642 34.193 27.0837 33.6631 27.0837 33.1105C27.0837 32.558 26.8642 32.0281 26.4735 31.6374C26.0828 31.2467 25.5529 31.0272 25.0003 31.0272C24.4478 31.0272 23.9179 31.2467 23.5272 31.6374C23.1365 32.0281 22.917 32.558 22.917 33.1105C22.917 33.6631 23.1365 34.193 23.5272 34.5837C23.9179 34.9744 24.4478 35.1939 25.0003 35.1939Z" fill="#252525"/>
</svg>
