<svg width="50" height="50" viewBox="0 0 50 50" fill="none" xmlns="http://www.w3.org/2000/svg">
<path d="M3 20.7188C3 14.2441 8.24414 9 14.7188 9H15.5C17.2285 9 18.625 10.3965 18.625 12.125C18.625 13.8535 17.2285 15.25 15.5 15.25H14.7188C11.7012 15.25 9.25 17.7012 9.25 20.7188V21.5H15.5C18.9473 21.5 21.75 24.3027 21.75 27.75V34C21.75 37.4473 18.9473 40.25 15.5 40.25H9.25C5.80273 40.25 3 37.4473 3 34V20.7188ZM28 20.7188C28 14.2441 33.2441 9 39.7188 9H40.5C42.2285 9 43.625 10.3965 43.625 12.125C43.625 13.8535 42.2285 15.25 40.5 15.25H39.7188C36.7012 15.25 34.25 17.7012 34.25 20.7188V21.5H40.5C43.9473 21.5 46.75 24.3027 46.75 27.75V34C46.75 37.4473 43.9473 40.25 40.5 40.25H34.25C30.8027 40.25 28 37.4473 28 34V20.7188Z" fill="#252525"/>
</svg>
