<svg width="50" height="50" viewBox="0 0 50 50" fill="none" xmlns="http://www.w3.org/2000/svg">
<path d="M28.3868 5.19556C19.5473 5.19556 12.3863 12.3601 12.3863 21.1956C12.3817 24.1063 13.1751 26.9627 14.6803 29.4541L6.92278 37.2116L6.94978 37.2386C6.12178 38.0311 5.61328 39.1561 5.61328 40.4276C5.61278 42.8841 7.56978 44.8051 10.0238 44.8046C11.2773 44.8041 12.3983 44.3026 13.1983 43.4866L13.2178 43.5061L21.2218 35.5016C23.4451 36.6179 25.8989 37.198 28.3868 37.1956C37.2268 37.1956 44.3863 30.0321 44.3863 21.1956C44.3863 12.3601 37.2263 5.19556 28.3868 5.19556ZM28.4838 30.9041C22.9588 30.9041 18.4833 26.4271 18.4833 20.9041C18.4833 15.3821 22.9588 10.9041 28.4838 10.9041C34.0088 10.9041 38.4833 15.3816 38.4833 20.9041C38.4838 26.4271 34.0088 30.9041 28.4838 30.9041Z" fill="#252525"/>
</svg>
