<svg width="50" height="50" viewBox="0 0 50 50" fill="none" xmlns="http://www.w3.org/2000/svg">
<g clip-path="url(#clip0_373_27936)">
<path fill-rule="evenodd" clip-rule="evenodd" d="M31.2497 4.16675C31.9811 4.16677 32.6996 4.3593 33.3329 4.725C33.9663 5.0907 34.4923 5.61668 34.858 6.25008H37.4997C38.6047 6.25008 39.6645 6.68907 40.446 7.47047C41.2274 8.25187 41.6663 9.31168 41.6663 10.4167V35.4168C41.6663 38.1794 40.5689 40.8289 38.6154 42.7824C36.6619 44.736 34.0123 45.8334 31.2497 45.8334H12.4997C11.3946 45.8334 10.3348 45.3944 9.5534 44.613C8.77199 43.8316 8.33301 42.7718 8.33301 41.6668V10.4167C8.33301 9.31168 8.77199 8.25187 9.5534 7.47047C10.3348 6.68907 11.3946 6.25008 12.4997 6.25008H15.1413C15.507 5.61668 16.033 5.0907 16.6664 4.725C17.2998 4.3593 18.0183 4.16677 18.7497 4.16675H31.2497ZM30.883 19.5397L22.0455 28.3772L19.0976 25.4313C18.7047 25.0518 18.1784 24.8418 17.6322 24.8466C17.0859 24.8513 16.5634 25.0704 16.1771 25.4567C15.7909 25.843 15.5718 26.3655 15.567 26.9117C15.5623 27.458 15.7723 27.9842 16.1518 28.3772L20.4226 32.6501C20.6354 32.863 20.8881 33.0319 21.1662 33.1471C21.4443 33.2624 21.7424 33.3217 22.0434 33.3217C22.3445 33.3217 22.6425 33.2624 22.9207 33.1471C23.1988 33.0319 23.4514 32.863 23.6643 32.6501L33.8309 22.4855C34.0244 22.2919 34.1778 22.0622 34.2824 21.8093C34.387 21.5565 34.4408 21.2855 34.4407 21.0118C34.4406 20.7382 34.3866 20.4673 34.2818 20.2145C34.177 19.9617 34.0234 19.7321 33.8299 19.5386C33.6363 19.3452 33.4066 19.1918 33.1537 19.0872C32.9009 18.9825 32.6299 18.9287 32.3562 18.9288C32.0826 18.9289 31.8116 18.9829 31.5589 19.0877C31.3061 19.1925 31.0764 19.3461 30.883 19.5397ZM30.208 8.33342H19.7913C19.5475 8.33333 19.3114 8.41877 19.1241 8.57485C18.9368 8.73093 18.8102 8.94776 18.7663 9.18758L18.7497 9.37508V11.4584C18.7496 11.7022 18.835 11.9383 18.9911 12.1256C19.1472 12.3129 19.364 12.4395 19.6038 12.4834L19.7913 12.5001H30.208C30.4518 12.5002 30.6879 12.4147 30.8752 12.2586C31.0625 12.1026 31.1891 11.8857 31.233 11.6459L31.2497 11.4584V9.37508C31.2498 9.13128 31.1643 8.89517 31.0082 8.70788C30.8522 8.52058 30.6353 8.39397 30.3955 8.35008L30.208 8.33342Z" fill="#252525"/>
</g>
<defs>
<clipPath id="clip0_373_27936">
<rect width="50" height="50" fill="white"/>
</clipPath>
</defs>
</svg>
