<svg width="50" height="50" viewBox="0 0 50 50" fill="none" xmlns="http://www.w3.org/2000/svg">
<path d="M14.5837 20.8333C14.5837 21.9383 14.1447 22.9981 13.3633 23.7795C12.5819 24.5609 11.5221 24.9999 10.417 24.9999C9.31192 24.9999 8.25212 24.5609 7.47071 23.7795C6.68931 22.9981 6.25033 21.9383 6.25033 20.8333C6.25033 19.7282 6.68931 18.6684 7.47071 17.887C8.25212 17.1056 9.31192 16.6666 10.417 16.6666C11.5221 16.6666 12.5819 17.1056 13.3633 17.887C14.1447 18.6684 14.5837 19.7282 14.5837 20.8333Z" fill="#252525"/>
<path d="M43.7503 20.8333C43.7503 21.9383 43.3113 22.9981 42.5299 23.7795C41.7485 24.5609 40.6887 24.9999 39.5837 24.9999C38.4786 24.9999 37.4188 24.5609 36.6374 23.7795C35.856 22.9981 35.417 21.9383 35.417 20.8333C35.417 19.7282 35.856 18.6684 36.6374 17.887C37.4188 17.1056 38.4786 16.6666 39.5837 16.6666C40.6887 16.6666 41.7485 17.1056 42.5299 17.887C43.3113 18.6684 43.7503 19.7282 43.7503 20.8333Z" fill="#252525"/>
<path d="M35.417 41.6666H45.8337V37.4999C45.8336 36.201 45.4288 34.9344 44.6756 33.8762C43.9224 32.818 42.8583 32.0207 41.6311 31.5952C40.4038 31.1697 39.0745 31.1372 37.8279 31.502C36.5814 31.8669 35.4794 32.6111 34.6753 33.6312C35.1545 34.827 35.417 36.1333 35.417 37.4999V41.6666Z" fill="#252525"/>
<path d="M4.16699 41.6666H14.5837V37.4999C14.5837 36.1333 14.8462 34.827 15.3253 33.6312C14.5212 32.6111 13.4193 31.8669 12.1727 31.502C10.9261 31.1372 9.59682 31.1697 8.3696 31.5952C7.14238 32.0207 6.07822 32.818 5.32504 33.8762C4.57186 34.9344 4.16709 36.201 4.16699 37.4999V41.6666Z" fill="#252525"/>
<path d="M14.5837 41.6666H35.417V37.4999C35.417 36.1333 35.1545 34.827 34.6753 33.6312C33.9017 31.6977 32.5665 30.0405 30.842 28.8731C29.1175 27.7057 27.0828 27.0818 25.0003 27.0818C22.9179 27.0818 20.8832 27.7057 19.1587 28.8731C17.4342 30.0405 16.099 31.6977 15.3253 33.6312C14.8462 34.827 14.5837 36.1333 14.5837 37.4999V41.6666Z" fill="#252525"/>
<path d="M31.2503 14.5833C31.2503 16.2409 30.5918 17.8306 29.4197 19.0027C28.2476 20.1748 26.6579 20.8333 25.0003 20.8333C23.3427 20.8333 21.753 20.1748 20.5809 19.0027C19.4088 17.8306 18.7503 16.2409 18.7503 14.5833C18.7503 12.9256 19.4088 11.3359 20.5809 10.1638C21.753 8.99173 23.3427 8.33325 25.0003 8.33325C26.6579 8.33325 28.2476 8.99173 29.4197 10.1638C30.5918 11.3359 31.2503 12.9256 31.2503 14.5833Z" fill="#252525"/>
<path d="M35.417 41.6666H45.8337V37.4999C45.8336 36.201 45.4288 34.9344 44.6756 33.8762C43.9224 32.818 42.8583 32.0207 41.6311 31.5952C40.4038 31.1697 39.0745 31.1372 37.8279 31.502C36.5814 31.8669 35.4794 32.6111 34.6753 33.6312M35.417 41.6666H14.5837M35.417 41.6666V37.4999C35.417 36.1333 35.1545 34.827 34.6753 33.6312M34.6753 33.6312C33.9017 31.6977 32.5665 30.0405 30.842 28.8731C29.1175 27.7057 27.0828 27.0818 25.0003 27.0818C22.9179 27.0818 20.8832 27.7057 19.1587 28.8731C17.4342 30.0405 16.099 31.6977 15.3253 33.6312M14.5837 41.6666H4.16699V37.4999C4.16709 36.201 4.57186 34.9344 5.32504 33.8762C6.07822 32.818 7.14238 32.0207 8.3696 31.5952C9.59682 31.1697 10.9261 31.1372 12.1727 31.502C13.4193 31.8669 14.5212 32.6111 15.3253 33.6312M14.5837 41.6666V37.4999C14.5837 36.1333 14.8462 34.827 15.3253 33.6312M31.2503 14.5833C31.2503 16.2409 30.5918 17.8306 29.4197 19.0027C28.2476 20.1748 26.6579 20.8333 25.0003 20.8333C23.3427 20.8333 21.753 20.1748 20.5809 19.0027C19.4088 17.8306 18.7503 16.2409 18.7503 14.5833C18.7503 12.9256 19.4088 11.3359 20.5809 10.1638C21.753 8.99173 23.3427 8.33325 25.0003 8.33325C26.6579 8.33325 28.2476 8.99173 29.4197 10.1638C30.5918 11.3359 31.2503 12.9256 31.2503 14.5833ZM43.7503 20.8333C43.7503 21.9383 43.3113 22.9981 42.5299 23.7795C41.7485 24.5609 40.6887 24.9999 39.5837 24.9999C38.4786 24.9999 37.4188 24.5609 36.6374 23.7795C35.856 22.9981 35.417 21.9383 35.417 20.8333C35.417 19.7282 35.856 18.6684 36.6374 17.887C37.4188 17.1056 38.4786 16.6666 39.5837 16.6666C40.6887 16.6666 41.7485 17.1056 42.5299 17.887C43.3113 18.6684 43.7503 19.7282 43.7503 20.8333ZM14.5837 20.8333C14.5837 21.9383 14.1447 22.9981 13.3633 23.7795C12.5819 24.5609 11.5221 24.9999 10.417 24.9999C9.31192 24.9999 8.25212 24.5609 7.47071 23.7795C6.68931 22.9981 6.25033 21.9383 6.25033 20.8333C6.25033 19.7282 6.68931 18.6684 7.47071 17.887C8.25212 17.1056 9.31192 16.6666 10.417 16.6666C11.5221 16.6666 12.5819 17.1056 13.3633 17.887C14.1447 18.6684 14.5837 19.7282 14.5837 20.8333Z" stroke="#252525" stroke-width="4" stroke-linecap="round" stroke-linejoin="round"/>
</svg>
