<svg width="50" height="50" viewBox="0 0 50 50" fill="none" xmlns="http://www.w3.org/2000/svg">
<path d="M25 27.0833C28.4518 27.0833 31.25 24.285 31.25 20.8333C31.25 17.3815 28.4518 14.5833 25 14.5833C21.5482 14.5833 18.75 17.3815 18.75 20.8333C18.75 24.285 21.5482 27.0833 25 27.0833Z" stroke="#252525" stroke-width="5" stroke-linecap="round" stroke-linejoin="round"/>
<path d="M35.4163 35.4166C35.4163 30.8124 30.7518 27.0833 24.9997 27.0833C19.2476 27.0833 14.583 30.8124 14.583 35.4166" stroke="#252525" stroke-width="5" stroke-linecap="round" stroke-linejoin="round"/>
<path d="M37.5 6.25H12.5C9.04822 6.25 6.25 9.04822 6.25 12.5V37.5C6.25 40.9518 9.04822 43.75 12.5 43.75H37.5C40.9518 43.75 43.75 40.9518 43.75 37.5V12.5C43.75 9.04822 40.9518 6.25 37.5 6.25Z" stroke="#252525" stroke-width="5" stroke-linecap="round" stroke-linejoin="round"/>
</svg>
